<?xml version="1.0" encoding="UTF-8" standalone="no"?>
<!DOCTYPE svg PUBLIC "-//W3C//DTD SVG 1.1//EN"
 "http://www.w3.org/Graphics/SVG/1.1/DTD/svg11.dtd">
<!-- Generated by graphviz version 2.43.0 (0)
 -->
<!-- Title: VeritableGamesGodotProjects Pages: 1 -->
<svg width="3588pt" height="567pt"
 viewBox="0.00 0.00 3588.00 567.48" xmlns="http://www.w3.org/2000/svg" xmlns:xlink="http://www.w3.org/1999/xlink">
<g id="graph0" class="graph" transform="scale(1 1) rotate(0) translate(4 563.48)">
<title>VeritableGamesGodotProjects</title>
<polygon fill="white" stroke="transparent" points="-4,4 -4,-563.48 3584,-563.48 3584,4 -4,4"/>
<g id="clust1" class="cluster">
<title>cluster_noxii</title>
<polygon fill="none" stroke="#2e7d32" stroke-width="3" points="8,-125.74 8,-551.48 1036,-551.48 1036,-125.74 8,-125.74"/>
<text text-anchor="middle" x="522" y="-536.28" font-family="Times,serif" font-size="14.00">NOXII (5.9G)</text>
<text text-anchor="middle" x="522" y="-521.28" font-family="Times,serif" font-size="14.00">Current Godot Game Project</text>
</g>
<g id="clust2" class="cluster">
<title>cluster_noxii_versions</title>
<polygon fill="none" stroke="#2e7d32" stroke-width="3" points="372,-207.74 372,-300.48 1028,-300.48 1028,-207.74 372,-207.74"/>
<text text-anchor="middle" x="700" y="-285.28" font-family="Times,serif" font-size="14.00">Version Archive</text>
</g>
<g id="clust3" class="cluster">
<title>cluster_noxii_structure</title>
<polygon fill="none" stroke="#2e7d32" stroke-width="3" points="16,-133.74 16,-505.48 364,-505.48 364,-133.74 16,-133.74"/>
<text text-anchor="middle" x="190" y="-490.28" font-family="Times,serif" font-size="14.00">Project Structure</text>
</g>
<g id="clust4" class="cluster">
<title>cluster_enact</title>
<polygon fill="none" stroke="#1565c0" stroke-width="3" points="1272,-125.74 1272,-551.48 2538,-551.48 2538,-125.74 1272,-125.74"/>
<text text-anchor="middle" x="1905" y="-536.28" font-family="Times,serif" font-size="14.00">ENACT (16G)</text>
<text text-anchor="middle" x="1905" y="-521.28" font-family="Times,serif" font-size="14.00">Current Godot Game Project</text>
</g>
<g id="clust5" class="cluster">
<title>cluster_enact_versions</title>
<polygon fill="none" stroke="#1565c0" stroke-width="3" points="1638,-207.74 1638,-300.48 2530,-300.48 2530,-207.74 1638,-207.74"/>
<text text-anchor="middle" x="2084" y="-285.28" font-family="Times,serif" font-size="14.00">Version Archive (9 Versions)</text>
</g>
<g id="clust6" class="cluster">
<title>cluster_enact_structure</title>
<polygon fill="none" stroke="#1565c0" stroke-width="3" points="1280,-133.74 1280,-505.48 1630,-505.48 1630,-133.74 1280,-133.74"/>
<text text-anchor="middle" x="1455" y="-490.28" font-family="Times,serif" font-size="14.00">Project Structure</text>
</g>
<g id="clust7" class="cluster">
<title>cluster_noxii_legacy</title>
<polygon fill="none" stroke="#e65100" stroke-width="2" points="2546,-207.61 2546,-409.48 2907,-409.48 2907,-207.61 2546,-207.61"/>
<text text-anchor="middle" x="2726.5" y="-394.28" font-family="Times,serif" font-size="14.00">NOXII&#45;LEGACY (29G)</text>
<text text-anchor="middle" x="2726.5" y="-379.28" font-family="Times,serif" font-size="14.00">Historical Versions (0.01&#45;0.27)</text>
</g>
<g id="clust8" class="cluster">
<title>cluster_legacy_versions</title>
<polygon fill="none" stroke="#e65100" stroke-width="2" points="2554,-215.61 2554,-292.61 2899,-292.61 2899,-215.61 2554,-215.61"/>
<text text-anchor="middle" x="2726.5" y="-277.41" font-family="Times,serif" font-size="14.00">Complete Version Archive</text>
</g>
<g id="clust9" class="cluster">
<title>cluster_storage</title>
<polygon fill="none" stroke="gray" stroke-width="2" points="1044,-132.74 1044,-292.61 1264,-292.61 1264,-132.74 1044,-132.74"/>
<text text-anchor="middle" x="1154" y="-277.41" font-family="Times,serif" font-size="14.00">Project Storage</text>
</g>
<g id="clust10" class="cluster">
<title>cluster_backups</title>
<polygon fill="none" stroke="goldenrod" stroke-width="2" points="904,-8 904,-100.74 1406,-100.74 1406,-8 904,-8"/>
<text text-anchor="middle" x="1155" y="-85.54" font-family="Times,serif" font-size="14.00">Project Backups &amp; Archives</text>
</g>
<g id="clust11" class="cluster">
<title>cluster_features</title>
<polygon fill="none" stroke="purple" points="2705,-429.48 2705,-504.48 3338,-504.48 3338,-429.48 2705,-429.48"/>
<text text-anchor="middle" x="3021.5" y="-489.28" font-family="Times,serif" font-size="14.00">Development Features</text>
</g>
<g id="clust12" class="cluster">
<title>cluster_legend</title>
<polygon fill="none" stroke="gray" points="3346,-319.48 3346,-504.48 3572,-504.48 3572,-319.48 3346,-319.48"/>
<text text-anchor="middle" x="3459" y="-489.28" font-family="Times,serif" font-size="14.00">Legend</text>
</g>
<!-- root -->
<g id="node1" class="node">
<title>root</title>
<polygon fill="#2e7d32" stroke="black" stroke-width="3" points="2694.5,-474.48 2549.5,-474.48 2545.5,-470.48 2545.5,-436.48 2690.5,-436.48 2694.5,-440.48 2694.5,-474.48"/>
<polyline fill="none" stroke="black" stroke-width="3" points="2690.5,-470.48 2545.5,-470.48 "/>
<polyline fill="none" stroke="black" stroke-width="3" points="2690.5,-470.48 2690.5,-436.48 "/>
<polyline fill="none" stroke="black" stroke-width="3" points="2690.5,-470.48 2694.5,-474.48 "/>
<text text-anchor="middle" x="2620" y="-459.28" font-family="Courier New" font-size="14.00" fill="white">Game Development</text>
<text text-anchor="middle" x="2620" y="-444.28" font-family="Courier New" font-size="14.00" fill="white">Projects</text>
</g>
<!-- noxii_root -->
<g id="node2" class="node">
<title>noxii_root</title>
<polygon fill="#4caf50" stroke="black" stroke-width="2" points="840.5,-363.48 837.5,-367.48 816.5,-367.48 813.5,-363.48 729.5,-363.48 729.5,-327.48 840.5,-327.48 840.5,-363.48"/>
<text text-anchor="middle" x="785" y="-348.28" font-family="Courier New" font-size="9.00" fill="white">NOXII/</text>
<text text-anchor="middle" x="785" y="-338.28" font-family="Courier New" font-size="9.00" fill="white">Active Development</text>
</g>
<!-- root&#45;&gt;noxii_root -->
<g id="edge22" class="edge">
<title>root&#45;&gt;noxii_root</title>
<path fill="none" stroke="black" d="M2545.26,-455C2344.07,-455 1806.17,-455 1806.17,-455 1806.17,-455 1806.17,-357 1806.17,-357 1806.17,-357 850.63,-357 850.63,-357"/>
<polygon fill="black" stroke="black" points="850.63,-353.5 840.63,-357 850.63,-360.5 850.63,-353.5"/>
</g>
<!-- enact_root -->
<g id="node13" class="node">
<title>enact_root</title>
<polygon fill="#1976d2" stroke="black" stroke-width="2" points="2081.5,-363.48 2078.5,-367.48 2057.5,-367.48 2054.5,-363.48 1970.5,-363.48 1970.5,-327.48 2081.5,-327.48 2081.5,-363.48"/>
<text text-anchor="middle" x="2026" y="-348.28" font-family="Courier New" font-size="9.00" fill="white">ENACT/</text>
<text text-anchor="middle" x="2026" y="-338.28" font-family="Courier New" font-size="9.00" fill="white">Active Development</text>
</g>
<!-- root&#45;&gt;enact_root -->
<g id="edge23" class="edge">
<title>root&#45;&gt;enact_root</title>
<path fill="none" stroke="black" d="M2552.25,-436.39C2552.25,-407 2552.25,-354 2552.25,-354 2552.25,-354 2091.82,-354 2091.82,-354"/>
<polygon fill="black" stroke="black" points="2091.82,-350.5 2081.82,-354 2091.82,-357.5 2091.82,-350.5"/>
</g>
<!-- noxii_legacy_root -->
<g id="node27" class="node">
<title>noxii_legacy_root</title>
<polygon fill="#ff6f00" stroke="black" points="2681,-363.48 2678,-367.48 2657,-367.48 2654,-363.48 2559,-363.48 2559,-327.48 2681,-327.48 2681,-363.48"/>
<text text-anchor="middle" x="2620" y="-348.28" font-family="Courier New" font-size="9.00" fill="white">NOXII&#45;LEGACY/</text>
<text text-anchor="middle" x="2620" y="-338.28" font-family="Courier New" font-size="9.00" fill="white">Archived Development</text>
</g>
<!-- root&#45;&gt;noxii_legacy_root -->
<g id="edge24" class="edge">
<title>root&#45;&gt;noxii_legacy_root</title>
<path fill="none" stroke="black" d="M2620,-436.32C2620,-436.32 2620,-373.69 2620,-373.69"/>
<polygon fill="black" stroke="black" points="2623.5,-373.69 2620,-363.69 2616.5,-373.69 2623.5,-373.69"/>
</g>
<!-- noxii_v04 -->
<g id="node3" class="node">
<title>noxii_v04</title>
<polygon fill="#388e3c" stroke="black" points="496,-261.61 493,-265.61 472,-265.61 469,-261.61 380,-261.61 380,-223.61 496,-223.61 496,-261.61"/>
<text text-anchor="middle" x="438" y="-250.41" font-family="Courier New" font-size="9.00" fill="white">v0.04 (Latest)</text>
<text text-anchor="middle" x="438" y="-240.41" font-family="Courier New" font-size="9.00" fill="white">931MB</text>
<text text-anchor="middle" x="438" y="-230.41" font-family="Courier New" font-size="9.00" fill="white">Full Implementation</text>
</g>
<!-- noxii_root&#45;&gt;noxii_v04 -->
<g id="edge1" class="edge">
<title>noxii_root&#45;&gt;noxii_v04</title>
<path fill="none" stroke="black" d="M729.25,-354C631.16,-354 438,-354 438,-354 438,-354 438,-271.76 438,-271.76"/>
<polygon fill="black" stroke="black" points="441.5,-271.76 438,-261.76 434.5,-271.76 441.5,-271.76"/>
</g>
<!-- noxii_v03 -->
<g id="node4" class="node">
<title>noxii_v03</title>
<polygon fill="#66bb6a" stroke="black" points="594,-261.61 591,-265.61 570,-265.61 567,-261.61 514,-261.61 514,-223.61 594,-223.61 594,-261.61"/>
<text text-anchor="middle" x="554" y="-250.41" font-family="Courier New" font-size="9.00">v0.03</text>
<text text-anchor="middle" x="554" y="-240.41" font-family="Courier New" font-size="9.00">1.3GB</text>
<text text-anchor="middle" x="554" y="-230.41" font-family="Courier New" font-size="9.00">Core Systems</text>
</g>
<!-- noxii_root&#45;&gt;noxii_v03 -->
<g id="edge2" class="edge">
<title>noxii_root&#45;&gt;noxii_v03</title>
<path fill="none" stroke="black" d="M729.38,-345C661.02,-345 554,-345 554,-345 554,-345 554,-271.87 554,-271.87"/>
<polygon fill="black" stroke="black" points="557.5,-271.87 554,-261.87 550.5,-271.87 557.5,-271.87"/>
</g>
<!-- noxii_v02 -->
<g id="node5" class="node">
<title>noxii_v02</title>
<polygon fill="#66bb6a" stroke="black" points="713.5,-261.61 710.5,-265.61 689.5,-265.61 686.5,-261.61 612.5,-261.61 612.5,-223.61 713.5,-223.61 713.5,-261.61"/>
<text text-anchor="middle" x="663" y="-250.41" font-family="Courier New" font-size="9.00">v0.02</text>
<text text-anchor="middle" x="663" y="-240.41" font-family="Courier New" font-size="9.00">1.2GB</text>
<text text-anchor="middle" x="663" y="-230.41" font-family="Courier New" font-size="9.00">Engine Iteration</text>
</g>
<!-- noxii_root&#45;&gt;noxii_v02 -->
<g id="edge3" class="edge">
<title>noxii_root&#45;&gt;noxii_v02</title>
<path fill="none" stroke="black" d="M729.36,-336C697.18,-336 663,-336 663,-336 663,-336 663,-271.96 663,-271.96"/>
<polygon fill="black" stroke="black" points="666.5,-271.96 663,-261.96 659.5,-271.96 666.5,-271.96"/>
</g>
<!-- noxii_v01 -->
<g id="node6" class="node">
<title>noxii_v01</title>
<polygon fill="#81c784" stroke="black" points="838,-261.61 835,-265.61 814,-265.61 811,-261.61 732,-261.61 732,-223.61 838,-223.61 838,-261.61"/>
<text text-anchor="middle" x="785" y="-250.41" font-family="Courier New" font-size="9.00">v0.01</text>
<text text-anchor="middle" x="785" y="-240.41" font-family="Courier New" font-size="9.00">1.2GB</text>
<text text-anchor="middle" x="785" y="-230.41" font-family="Courier New" font-size="9.00">Initial Prototype</text>
</g>
<!-- noxii_root&#45;&gt;noxii_v01 -->
<g id="edge4" class="edge">
<title>noxii_root&#45;&gt;noxii_v01</title>
<path fill="none" stroke="black" d="M767.33,-327.09C767.33,-327.09 767.33,-271.89 767.33,-271.89"/>
<polygon fill="black" stroke="black" points="770.83,-271.89 767.33,-261.89 763.83,-271.89 770.83,-271.89"/>
</g>
<!-- noxii_archives -->
<g id="node7" class="node">
<title>noxii_archives</title>
<ellipse fill="#a5d6a7" stroke="black" cx="938" cy="-242.61" rx="82.05" ry="26.74"/>
<text text-anchor="middle" x="938" y="-250.41" font-family="Courier New" font-size="9.00">Compressed</text>
<text text-anchor="middle" x="938" y="-240.41" font-family="Courier New" font-size="9.00">(noxii&#45;0.0X.tar.xz)</text>
<text text-anchor="middle" x="938" y="-230.41" font-family="Courier New" font-size="9.00">~1.4GB total</text>
</g>
<!-- noxii_root&#45;&gt;noxii_archives -->
<g id="edge5" class="edge">
<title>noxii_root&#45;&gt;noxii_archives</title>
<path fill="none" stroke="gray" stroke-dasharray="5,2" d="M802.67,-327.22C802.67,-303.47 802.67,-265 802.67,-265 802.67,-265 882.56,-265 882.56,-265"/>
<polygon fill="gray" stroke="gray" points="882.56,-268.5 892.56,-265 882.56,-261.5 882.56,-268.5"/>
</g>
<!-- storage_active -->
<g id="node31" class="node">
<title>storage_active</title>
<polygon fill="#4caf50" stroke="black" points="1147.5,-261.61 1144.5,-265.61 1123.5,-265.61 1120.5,-261.61 1052.5,-261.61 1052.5,-223.61 1147.5,-223.61 1147.5,-261.61"/>
<text text-anchor="middle" x="1100" y="-250.41" font-family="Courier New" font-size="9.00" fill="white">Active Projects</text>
<text text-anchor="middle" x="1100" y="-240.41" font-family="Courier New" font-size="9.00" fill="white">(NOXII + ENACT)</text>
<text text-anchor="middle" x="1100" y="-230.41" font-family="Courier New" font-size="9.00" fill="white">21.9GB total</text>
</g>
<!-- noxii_root&#45;&gt;storage_active -->
<g id="edge25" class="edge">
<title>noxii_root&#45;&gt;storage_active</title>
<path fill="none" stroke="black" d="M840.57,-339C927.09,-339 1084.17,-339 1084.17,-339 1084.17,-339 1084.17,-271.65 1084.17,-271.65"/>
<polygon fill="black" stroke="black" points="1087.67,-271.65 1084.17,-261.65 1080.67,-271.65 1087.67,-271.65"/>
</g>
<!-- noxii_scripts -->
<g id="node8" class="node">
<title>noxii_scripts</title>
<polygon fill="lightgrey" stroke="black" points="222,-177.74 219,-181.74 198,-181.74 195,-177.74 116,-177.74 116,-141.74 222,-141.74 222,-177.74"/>
<text text-anchor="middle" x="169" y="-162.54" font-family="Courier New" font-size="9.00">scripts/</text>
<text text-anchor="middle" x="169" y="-152.54" font-family="Courier New" font-size="9.00">GDScript gameplay</text>
</g>
<!-- noxii_v04&#45;&gt;noxii_scripts -->
<g id="edge6" class="edge">
<title>noxii_v04&#45;&gt;noxii_scripts</title>
<path fill="none" stroke="black" d="M379.84,-242C309.82,-242 201.5,-242 201.5,-242 201.5,-242 201.5,-188 201.5,-188"/>
<polygon fill="black" stroke="black" points="205,-188 201.5,-178 198,-188 205,-188"/>
</g>
<!-- noxii_assets -->
<g id="node9" class="node">
<title>noxii_assets</title>
<polygon fill="lightgrey" stroke="black" points="356,-177.74 353,-181.74 332,-181.74 329,-177.74 240,-177.74 240,-141.74 356,-141.74 356,-177.74"/>
<text text-anchor="middle" x="298" y="-162.54" font-family="Courier New" font-size="9.00">assets/</text>
<text text-anchor="middle" x="298" y="-152.54" font-family="Courier New" font-size="9.00">3D models, textures</text>
</g>
<!-- noxii_v04&#45;&gt;noxii_assets -->
<g id="edge7" class="edge">
<title>noxii_v04&#45;&gt;noxii_assets</title>
<path fill="none" stroke="black" d="M379.84,-233C358.29,-233 339,-233 339,-233 339,-233 339,-187.85 339,-187.85"/>
<polygon fill="black" stroke="black" points="342.5,-187.85 339,-177.85 335.5,-187.85 342.5,-187.85"/>
</g>
<!-- noxii_scenes -->
<g id="node10" class="node">
<title>noxii_scenes</title>
<polygon fill="lightgrey" stroke="black" points="98,-177.74 95,-181.74 74,-181.74 71,-177.74 24,-177.74 24,-141.74 98,-141.74 98,-177.74"/>
<text text-anchor="middle" x="61" y="-162.54" font-family="Courier New" font-size="9.00">scenes/</text>
<text text-anchor="middle" x="61" y="-152.54" font-family="Courier New" font-size="9.00">Game scenes</text>
</g>
<!-- noxii_v04&#45;&gt;noxii_scenes -->
<g id="edge8" class="edge">
<title>noxii_v04&#45;&gt;noxii_scenes</title>
<path fill="none" stroke="black" d="M379.73,-252C281.73,-252 94.5,-252 94.5,-252 94.5,-252 94.5,-187.97 94.5,-187.97"/>
<polygon fill="black" stroke="black" points="98,-187.97 94.5,-177.97 91,-187.97 98,-187.97"/>
</g>
<!-- noxii_addons -->
<g id="node11" class="node">
<title>noxii_addons</title>
<polygon fill="lightgrey" stroke="black" points="322,-473.48 319,-477.48 298,-477.48 295,-473.48 232,-473.48 232,-437.48 322,-437.48 322,-473.48"/>
<text text-anchor="middle" x="277" y="-458.28" font-family="Courier New" font-size="9.00">addons/</text>
<text text-anchor="middle" x="277" y="-448.28" font-family="Courier New" font-size="9.00">Custom plugins</text>
</g>
<!-- noxii_docs -->
<g id="node12" class="node">
<title>noxii_docs</title>
<polygon fill="lightgrey" stroke="black" points="181,-474.48 178,-478.48 157,-478.48 154,-474.48 91,-474.48 91,-436.48 181,-436.48 181,-474.48"/>
<text text-anchor="middle" x="136" y="-463.28" font-family="Courier New" font-size="9.00">docs/</text>
<text text-anchor="middle" x="136" y="-453.28" font-family="Courier New" font-size="9.00">Technical docs</text>
<text text-anchor="middle" x="136" y="-443.28" font-family="Courier New" font-size="9.00">Fix reports</text>
</g>
<!-- enact_v09 -->
<g id="node14" class="node">
<title>enact_v09</title>
<polygon fill="#0d47a1" stroke="black" points="2398,-261.61 2395,-265.61 2374,-265.61 2371,-261.61 2266,-261.61 2266,-223.61 2398,-223.61 2398,-261.61"/>
<text text-anchor="middle" x="2332" y="-250.41" font-family="Courier New" font-size="9.00" fill="white">v0.09 (Latest)</text>
<text text-anchor="middle" x="2332" y="-240.41" font-family="Courier New" font-size="9.00" fill="white">1.2GB</text>
<text text-anchor="middle" x="2332" y="-230.41" font-family="Courier New" font-size="9.00" fill="white">Dialogue + Interaction</text>
</g>
<!-- enact_root&#45;&gt;enact_v09 -->
<g id="edge9" class="edge">
<title>enact_root&#45;&gt;enact_v09</title>
<path fill="none" stroke="black" d="M2081.77,-336C2170.03,-336 2332,-336 2332,-336 2332,-336 2332,-271.96 2332,-271.96"/>
<polygon fill="black" stroke="black" points="2335.5,-271.96 2332,-261.96 2328.5,-271.96 2335.5,-271.96"/>
</g>
<!-- enact_v08 -->
<g id="node15" class="node">
<title>enact_v08</title>
<polygon fill="#1565c0" stroke="black" points="2522,-261.61 2519,-265.61 2498,-265.61 2495,-261.61 2416,-261.61 2416,-223.61 2522,-223.61 2522,-261.61"/>
<text text-anchor="middle" x="2469" y="-250.41" font-family="Courier New" font-size="9.00">v0.08</text>
<text text-anchor="middle" x="2469" y="-240.41" font-family="Courier New" font-size="9.00">1.2GB</text>
<text text-anchor="middle" x="2469" y="-230.41" font-family="Courier New" font-size="9.00">Performance Fixes</text>
</g>
<!-- enact_root&#45;&gt;enact_v08 -->
<g id="edge10" class="edge">
<title>enact_root&#45;&gt;enact_v08</title>
<path fill="none" stroke="black" d="M2081.66,-345C2200.64,-345 2469,-345 2469,-345 2469,-345 2469,-271.87 2469,-271.87"/>
<polygon fill="black" stroke="black" points="2472.5,-271.87 2469,-261.87 2465.5,-271.87 2472.5,-271.87"/>
</g>
<!-- enact_v07 -->
<g id="node16" class="node">
<title>enact_v07</title>
<polygon fill="#1976d2" stroke="black" points="1756.5,-261.61 1753.5,-265.61 1732.5,-265.61 1729.5,-261.61 1645.5,-261.61 1645.5,-223.61 1756.5,-223.61 1756.5,-261.61"/>
<text text-anchor="middle" x="1701" y="-250.41" font-family="Courier New" font-size="9.00">v0.07</text>
<text text-anchor="middle" x="1701" y="-240.41" font-family="Courier New" font-size="9.00">1.2GB</text>
<text text-anchor="middle" x="1701" y="-230.41" font-family="Courier New" font-size="9.00">Navigation Systems</text>
</g>
<!-- enact_root&#45;&gt;enact_v07 -->
<g id="edge11" class="edge">
<title>enact_root&#45;&gt;enact_v07</title>
<path fill="none" stroke="black" d="M1970.5,-345C1877.68,-345 1701,-345 1701,-345 1701,-345 1701,-271.87 1701,-271.87"/>
<polygon fill="black" stroke="black" points="1704.5,-271.87 1701,-261.87 1697.5,-271.87 1704.5,-271.87"/>
</g>
<!-- enact_v06 -->
<g id="node17" class="node">
<title>enact_v06</title>
<polygon fill="#1e88e5" stroke="black" points="1869.5,-261.61 1866.5,-265.61 1845.5,-265.61 1842.5,-261.61 1774.5,-261.61 1774.5,-223.61 1869.5,-223.61 1869.5,-261.61"/>
<text text-anchor="middle" x="1822" y="-250.41" font-family="Courier New" font-size="9.00">v0.06</text>
<text text-anchor="middle" x="1822" y="-240.41" font-family="Courier New" font-size="9.00">1.6GB</text>
<text text-anchor="middle" x="1822" y="-230.41" font-family="Courier New" font-size="9.00">Dialogue System</text>
</g>
<!-- enact_root&#45;&gt;enact_v06 -->
<g id="edge12" class="edge">
<title>enact_root&#45;&gt;enact_v06</title>
<path fill="none" stroke="black" d="M1970.31,-333C1914.82,-333 1837.83,-333 1837.83,-333 1837.83,-333 1837.83,-271.78 1837.83,-271.78"/>
<polygon fill="black" stroke="black" points="1841.33,-271.78 1837.83,-261.78 1834.33,-271.78 1841.33,-271.78"/>
</g>
<!-- enact_v05 -->
<g id="node18" class="node">
<title>enact_v05</title>
<polygon fill="#42a5f5" stroke="black" points="1968,-261.61 1965,-265.61 1944,-265.61 1941,-261.61 1888,-261.61 1888,-223.61 1968,-223.61 1968,-261.61"/>
<text text-anchor="middle" x="1928" y="-250.41" font-family="Courier New" font-size="9.00">v0.05</text>
<text text-anchor="middle" x="1928" y="-240.41" font-family="Courier New" font-size="9.00">1.7GB</text>
<text text-anchor="middle" x="1928" y="-230.41" font-family="Courier New" font-size="9.00">Optimization</text>
</g>
<!-- enact_root&#45;&gt;enact_v05 -->
<g id="edge13" class="edge">
<title>enact_root&#45;&gt;enact_v05</title>
<path fill="none" stroke="black" d="M1978.25,-327.46C1978.25,-297.81 1978.25,-242 1978.25,-242 1978.25,-242 1977.23,-242 1977.23,-242"/>
<polygon fill="black" stroke="black" points="1978.08,-238.5 1968.08,-242 1978.08,-245.5 1978.08,-238.5"/>
</g>
<!-- enact_older -->
<g id="node19" class="node">
<title>enact_older</title>
<polygon fill="#90caf9" stroke="black" points="2066,-261.61 2063,-265.61 2042,-265.61 2039,-261.61 1986,-261.61 1986,-223.61 2066,-223.61 2066,-261.61"/>
<text text-anchor="middle" x="2026" y="-250.41" font-family="Courier New" font-size="9.00">v0.01&#45;v0.04</text>
<text text-anchor="middle" x="2026" y="-240.41" font-family="Courier New" font-size="9.00">5.2GB total</text>
<text text-anchor="middle" x="2026" y="-230.41" font-family="Courier New" font-size="9.00">(4 versions)</text>
</g>
<!-- enact_root&#45;&gt;enact_older -->
<g id="edge14" class="edge">
<title>enact_root&#45;&gt;enact_older</title>
<path fill="none" stroke="black" d="M2026,-327.09C2026,-327.09 2026,-271.89 2026,-271.89"/>
<polygon fill="black" stroke="black" points="2029.5,-271.89 2026,-261.89 2022.5,-271.89 2029.5,-271.89"/>
</g>
<!-- enact_archives -->
<g id="node20" class="node">
<title>enact_archives</title>
<ellipse fill="#bbdefb" stroke="black" cx="2166" cy="-242.61" rx="82.05" ry="26.74"/>
<text text-anchor="middle" x="2166" y="-250.41" font-family="Courier New" font-size="9.00">Compressed</text>
<text text-anchor="middle" x="2166" y="-240.41" font-family="Courier New" font-size="9.00">(enact&#45;0.0X.tar.xz)</text>
<text text-anchor="middle" x="2166" y="-230.41" font-family="Courier New" font-size="9.00">~3.5GB total</text>
</g>
<!-- enact_root&#45;&gt;enact_archives -->
<g id="edge15" class="edge">
<title>enact_root&#45;&gt;enact_archives</title>
<path fill="none" stroke="gray" stroke-dasharray="5,2" d="M2073.75,-327.22C2073.75,-303.47 2073.75,-265 2073.75,-265 2073.75,-265 2110.42,-265 2110.42,-265"/>
<polygon fill="gray" stroke="gray" points="2110.42,-268.5 2120.42,-265 2110.42,-261.5 2110.42,-268.5"/>
</g>
<!-- enact_root&#45;&gt;storage_active -->
<g id="edge26" class="edge">
<title>enact_root&#45;&gt;storage_active</title>
<path fill="none" stroke="black" d="M1970.44,-351C1772.82,-351 1115.83,-351 1115.83,-351 1115.83,-351 1115.83,-271.74 1115.83,-271.74"/>
<polygon fill="black" stroke="black" points="1119.33,-271.74 1115.83,-261.74 1112.33,-271.74 1119.33,-271.74"/>
</g>
<!-- enact_scripts -->
<g id="node21" class="node">
<title>enact_scripts</title>
<polygon fill="lightgrey" stroke="black" points="1622,-177.74 1619,-181.74 1598,-181.74 1595,-177.74 1516,-177.74 1516,-141.74 1622,-141.74 1622,-177.74"/>
<text text-anchor="middle" x="1569" y="-162.54" font-family="Courier New" font-size="9.00">scripts/</text>
<text text-anchor="middle" x="1569" y="-152.54" font-family="Courier New" font-size="9.00">GDScript gameplay</text>
</g>
<!-- enact_v09&#45;&gt;enact_scripts -->
<g id="edge16" class="edge">
<title>enact_v09&#45;&gt;enact_scripts</title>
<path fill="none" stroke="black" d="M2365,-223.22C2365,-198.52 2365,-159 2365,-159 2365,-159 1632.15,-159 1632.15,-159"/>
<polygon fill="black" stroke="black" points="1632.15,-155.5 1622.15,-159 1632.15,-162.5 1632.15,-155.5"/>
</g>
<!-- enact_assets -->
<g id="node22" class="node">
<title>enact_assets</title>
<polygon fill="lightgrey" stroke="black" points="1389.5,-177.74 1386.5,-181.74 1365.5,-181.74 1362.5,-177.74 1288.5,-177.74 1288.5,-141.74 1389.5,-141.74 1389.5,-177.74"/>
<text text-anchor="middle" x="1339" y="-162.54" font-family="Courier New" font-size="9.00">assets/</text>
<text text-anchor="middle" x="1339" y="-152.54" font-family="Courier New" font-size="9.00">3D models, audio</text>
</g>
<!-- enact_v09&#45;&gt;enact_assets -->
<g id="edge17" class="edge">
<title>enact_v09&#45;&gt;enact_assets</title>
<path fill="none" stroke="black" d="M2299,-223.27C2299,-213.21 2299,-203 2299,-203 2299,-203 1342.75,-203 1342.75,-203 1342.75,-203 1342.75,-187.84 1342.75,-187.84"/>
<polygon fill="black" stroke="black" points="1346.25,-187.84 1342.75,-177.84 1339.25,-187.84 1346.25,-187.84"/>
</g>
<!-- enact_systems -->
<g id="node24" class="node">
<title>enact_systems</title>
<polygon fill="lightgrey" stroke="black" points="1498,-177.74 1495,-181.74 1474,-181.74 1471,-177.74 1408,-177.74 1408,-141.74 1498,-141.74 1498,-177.74"/>
<text text-anchor="middle" x="1453" y="-162.54" font-family="Courier New" font-size="9.00">systems/</text>
<text text-anchor="middle" x="1453" y="-152.54" font-family="Courier New" font-size="9.00">Game mechanics</text>
</g>
<!-- enact_v09&#45;&gt;enact_systems -->
<g id="edge18" class="edge">
<title>enact_v09&#45;&gt;enact_systems</title>
<path fill="none" stroke="black" d="M2332,-223.39C2332,-208.72 2332,-191 2332,-191 2332,-191 1461.25,-191 1461.25,-191 1461.25,-191 1461.25,-187.92 1461.25,-187.92"/>
<polygon fill="black" stroke="black" points="1464.75,-187.92 1461.25,-177.92 1457.75,-187.92 1464.75,-187.92"/>
</g>
<!-- enact_scenes -->
<g id="node23" class="node">
<title>enact_scenes</title>
<polygon fill="lightgrey" stroke="black" points="1620,-473.48 1617,-477.48 1596,-477.48 1593,-473.48 1546,-473.48 1546,-437.48 1620,-437.48 1620,-473.48"/>
<text text-anchor="middle" x="1583" y="-458.28" font-family="Courier New" font-size="9.00">scenes/</text>
<text text-anchor="middle" x="1583" y="-448.28" font-family="Courier New" font-size="9.00">Game levels</text>
</g>
<!-- enact_tests -->
<g id="node25" class="node">
<title>enact_tests</title>
<polygon fill="lightgrey" stroke="black" points="1525.5,-473.48 1522.5,-477.48 1501.5,-477.48 1498.5,-473.48 1424.5,-473.48 1424.5,-437.48 1525.5,-437.48 1525.5,-473.48"/>
<text text-anchor="middle" x="1475" y="-458.28" font-family="Courier New" font-size="9.00">tests/</text>
<text text-anchor="middle" x="1475" y="-448.28" font-family="Courier New" font-size="9.00">Validation tests</text>
</g>
<!-- enact_docs -->
<g id="node26" class="node">
<title>enact_docs</title>
<polygon fill="lightgrey" stroke="black" points="1402,-474.48 1399,-478.48 1378,-478.48 1375,-474.48 1296,-474.48 1296,-436.48 1402,-436.48 1402,-474.48"/>
<text text-anchor="middle" x="1349" y="-463.28" font-family="Courier New" font-size="9.00">docs/</text>
<text text-anchor="middle" x="1349" y="-453.28" font-family="Courier New" font-size="9.00">Architecture</text>
<text text-anchor="middle" x="1349" y="-443.28" font-family="Courier New" font-size="9.00">Integration plans</text>
</g>
<!-- legacy_recent -->
<g id="node28" class="node">
<title>legacy_recent</title>
<polygon fill="#ff6f00" stroke="black" points="2890.5,-261.61 2887.5,-265.61 2866.5,-265.61 2863.5,-261.61 2789.5,-261.61 2789.5,-223.61 2890.5,-223.61 2890.5,-261.61"/>
<text text-anchor="middle" x="2840" y="-250.41" font-family="Courier New" font-size="9.00">v0.20&#45;v0.27</text>
<text text-anchor="middle" x="2840" y="-240.41" font-family="Courier New" font-size="9.00">(Recent archive)</text>
<text text-anchor="middle" x="2840" y="-230.41" font-family="Courier New" font-size="9.00">8 versions</text>
</g>
<!-- noxii_legacy_root&#45;&gt;legacy_recent -->
<g id="edge19" class="edge">
<title>noxii_legacy_root&#45;&gt;legacy_recent</title>
<path fill="none" stroke="black" d="M2681.24,-345C2738.5,-345 2815.25,-345 2815.25,-345 2815.25,-345 2815.25,-271.87 2815.25,-271.87"/>
<polygon fill="black" stroke="black" points="2818.75,-271.87 2815.25,-261.87 2811.75,-271.87 2818.75,-271.87"/>
</g>
<!-- legacy_mid -->
<g id="node29" class="node">
<title>legacy_mid</title>
<polygon fill="#ffb74d" stroke="black" points="2652,-261.61 2649,-265.61 2628,-265.61 2625,-261.61 2562,-261.61 2562,-223.61 2652,-223.61 2652,-261.61"/>
<text text-anchor="middle" x="2607" y="-250.41" font-family="Courier New" font-size="9.00">v0.10&#45;v0.19</text>
<text text-anchor="middle" x="2607" y="-240.41" font-family="Courier New" font-size="9.00">(Mid versions)</text>
<text text-anchor="middle" x="2607" y="-230.41" font-family="Courier New" font-size="9.00">10 versions</text>
</g>
<!-- noxii_legacy_root&#45;&gt;legacy_mid -->
<g id="edge20" class="edge">
<title>noxii_legacy_root&#45;&gt;legacy_mid</title>
<path fill="none" stroke="black" d="M2622,-327.09C2622,-327.09 2622,-271.89 2622,-271.89"/>
<polygon fill="black" stroke="black" points="2625.5,-271.89 2622,-261.89 2618.5,-271.89 2625.5,-271.89"/>
</g>
<!-- legacy_early -->
<g id="node30" class="node">
<title>legacy_early</title>
<polygon fill="#ffcc80" stroke="black" points="2771.5,-261.61 2768.5,-265.61 2747.5,-265.61 2744.5,-261.61 2670.5,-261.61 2670.5,-223.61 2771.5,-223.61 2771.5,-261.61"/>
<text text-anchor="middle" x="2721" y="-250.41" font-family="Courier New" font-size="9.00">v0.01&#45;v0.09</text>
<text text-anchor="middle" x="2721" y="-240.41" font-family="Courier New" font-size="9.00">(Early versions)</text>
<text text-anchor="middle" x="2721" y="-230.41" font-family="Courier New" font-size="9.00">9 versions</text>
</g>
<!-- noxii_legacy_root&#45;&gt;legacy_early -->
<g id="edge21" class="edge">
<title>noxii_legacy_root&#45;&gt;legacy_early</title>
<path fill="none" stroke="black" d="M2675.75,-327.09C2675.75,-327.09 2675.75,-271.89 2675.75,-271.89"/>
<polygon fill="black" stroke="black" points="2679.25,-271.89 2675.75,-261.89 2672.25,-271.89 2679.25,-271.89"/>
</g>
<!-- storage_legacy -->
<g id="node32" class="node">
<title>storage_legacy</title>
<polygon fill="#ff6f00" stroke="black" points="1256,-261.61 1253,-265.61 1232,-265.61 1229,-261.61 1166,-261.61 1166,-223.61 1256,-223.61 1256,-261.61"/>
<text text-anchor="middle" x="1211" y="-250.41" font-family="Courier New" font-size="9.00" fill="white">Legacy Archive</text>
<text text-anchor="middle" x="1211" y="-240.41" font-family="Courier New" font-size="9.00" fill="white">(NOXII&#45;LEGACY)</text>
<text text-anchor="middle" x="1211" y="-230.41" font-family="Courier New" font-size="9.00" fill="white">29GB</text>
</g>
<!-- noxii_legacy_root&#45;&gt;storage_legacy -->
<g id="edge27" class="edge">
<title>noxii_legacy_root&#45;&gt;storage_legacy</title>
<path fill="none" stroke="black" d="M2592,-327.26C2592,-313.87 2592,-298 2592,-298 2592,-298 1211,-298 1211,-298 1211,-298 1211,-271.67 1211,-271.67"/>
<polygon fill="black" stroke="black" points="1214.5,-271.67 1211,-261.67 1207.5,-271.67 1214.5,-271.67"/>
</g>
<!-- storage_total -->
<g id="node33" class="node">
<title>storage_total</title>
<polygon fill="#2e7d32" stroke="black" stroke-width="3" points="1192,-178.74 1122,-178.74 1118,-174.74 1118,-140.74 1188,-140.74 1192,-144.74 1192,-178.74"/>
<polyline fill="none" stroke="black" stroke-width="3" points="1188,-174.74 1118,-174.74 "/>
<polyline fill="none" stroke="black" stroke-width="3" points="1188,-174.74 1188,-140.74 "/>
<polyline fill="none" stroke="black" stroke-width="3" points="1188,-174.74 1192,-178.74 "/>
<text text-anchor="middle" x="1155" y="-167.54" font-family="Courier New" font-size="9.00" fill="white">TOTAL GODOT</text>
<text text-anchor="middle" x="1155" y="-157.54" font-family="Courier New" font-size="9.00" fill="white">PROJECTS</text>
<text text-anchor="middle" x="1155" y="-147.54" font-family="Courier New" font-size="9.00" fill="white">50.9GB</text>
</g>
<!-- storage_active&#45;&gt;storage_total -->
<g id="edge28" class="edge">
<title>storage_active&#45;&gt;storage_total</title>
<path fill="none" stroke="black" d="M1132.75,-223.39C1132.75,-223.39 1132.75,-188.86 1132.75,-188.86"/>
<polygon fill="black" stroke="black" points="1136.25,-188.86 1132.75,-178.86 1129.25,-188.86 1136.25,-188.86"/>
</g>
<!-- storage_legacy&#45;&gt;storage_total -->
<g id="edge29" class="edge">
<title>storage_legacy&#45;&gt;storage_total</title>
<path fill="none" stroke="black" d="M1179,-223.39C1179,-223.39 1179,-188.86 1179,-188.86"/>
<polygon fill="black" stroke="black" points="1182.5,-188.86 1179,-178.86 1175.5,-188.86 1182.5,-188.86"/>
</g>
<!-- symlinks -->
<g id="node34" class="node">
<title>symlinks</title>
<polygon fill="#fbc02d" stroke="black" points="1076,-61.87 1073,-65.87 1052,-65.87 1049,-61.87 912,-61.87 912,-23.87 1076,-23.87 1076,-61.87"/>
<text text-anchor="middle" x="994" y="-50.67" font-family="Courier New" font-size="9.00">Symlinks (Home)</text>
<text text-anchor="middle" x="994" y="-40.67" font-family="Courier New" font-size="9.00">/home/user/projects/backups/</text>
<text text-anchor="middle" x="994" y="-30.67" font-family="Courier New" font-size="9.00">→ /data/projects/</text>
</g>
<!-- storage_total&#45;&gt;symlinks -->
<g id="edge30" class="edge">
<title>storage_total&#45;&gt;symlinks</title>
<path fill="none" stroke="red" stroke-dasharray="5,2" d="M1117.83,-159C1092.76,-159 1064.25,-159 1064.25,-159 1064.25,-159 1064.25,-72.05 1064.25,-72.05"/>
<polygon fill="red" stroke="red" points="1067.75,-72.05 1064.25,-62.05 1060.75,-72.05 1067.75,-72.05"/>
<text text-anchor="middle" x="1063.5" y="-111.34" font-family="Courier New" font-size="8.00">backed by</text>
</g>
<!-- backups_daily -->
<g id="node35" class="node">
<title>backups_daily</title>
<polygon fill="#fdd835" stroke="black" points="1216,-61.87 1213,-65.87 1192,-65.87 1189,-61.87 1094,-61.87 1094,-23.87 1216,-23.87 1216,-61.87"/>
<text text-anchor="middle" x="1155" y="-50.67" font-family="Courier New" font-size="9.00">Daily Snapshots</text>
<text text-anchor="middle" x="1155" y="-40.67" font-family="Courier New" font-size="9.00">/data/backups/daily/</text>
<text text-anchor="middle" x="1155" y="-30.67" font-family="Courier New" font-size="9.00">Automated hourly</text>
</g>
<!-- storage_total&#45;&gt;backups_daily -->
<g id="edge31" class="edge">
<title>storage_total&#45;&gt;backups_daily</title>
<path fill="none" stroke="orange" stroke-dasharray="1,5" d="M1155,-140.7C1155,-140.7 1155,-71.9 1155,-71.9"/>
<polygon fill="orange" stroke="orange" points="1158.5,-71.9 1155,-61.9 1151.5,-71.9 1158.5,-71.9"/>
<text text-anchor="middle" x="1189" y="-111.34" font-family="Courier New" font-size="8.00">daily snapshots</text>
</g>
<!-- compressed -->
<g id="node36" class="node">
<title>compressed</title>
<ellipse fill="#ffeb3b" stroke="black" cx="1316" cy="-42.87" rx="82.05" ry="26.74"/>
<text text-anchor="middle" x="1316" y="-50.67" font-family="Courier New" font-size="9.00">Compressed Archives</text>
<text text-anchor="middle" x="1316" y="-40.67" font-family="Courier New" font-size="9.00">(*.tar.xz)</text>
<text text-anchor="middle" x="1316" y="-30.67" font-family="Courier New" font-size="9.00">~5GB total</text>
</g>
<!-- storage_total&#45;&gt;compressed -->
<g id="edge32" class="edge">
<title>storage_total&#45;&gt;compressed</title>
<path fill="none" stroke="gray" d="M1192.12,-159C1216.91,-159 1244.99,-159 1244.99,-159 1244.99,-159 1244.99,-66.65 1244.99,-66.65"/>
<polygon fill="gray" stroke="gray" points="1248.49,-66.65 1244.99,-56.65 1241.49,-66.65 1248.49,-66.65"/>
<text text-anchor="middle" x="1310.5" y="-111.34" font-family="Courier New" font-size="8.00">also archived</text>
</g>
<!-- feature_godot4 -->
<g id="node37" class="node">
<title>feature_godot4</title>
<polygon fill="lightgrey" stroke="black" points="3330.5,-473.48 3327.5,-477.48 3306.5,-477.48 3303.5,-473.48 3223.5,-473.48 3223.5,-437.48 3330.5,-437.48 3330.5,-473.48"/>
<text text-anchor="middle" x="3277" y="-453.28" font-family="Courier New" font-size="9.00">🎮 Godot 4 Engine</text>
</g>
<!-- feature_gd -->
<g id="node38" class="node">
<title>feature_gd</title>
<polygon fill="lightgrey" stroke="black" points="3205,-473.48 3202,-477.48 3181,-477.48 3178,-473.48 3083,-473.48 3083,-437.48 3205,-437.48 3205,-473.48"/>
<text text-anchor="middle" x="3144" y="-453.28" font-family="Courier New" font-size="9.00">📝 GDScript Gameplay</text>
</g>
<!-- feature_3d -->
<g id="node39" class="node">
<title>feature_3d</title>
<polygon fill="lightgrey" stroke="black" points="3064.5,-473.48 3061.5,-477.48 3040.5,-477.48 3037.5,-473.48 2973.5,-473.48 2973.5,-437.48 3064.5,-437.48 3064.5,-473.48"/>
<text text-anchor="middle" x="3019" y="-453.28" font-family="Courier New" font-size="9.00">🎨 3D Graphics</text>
</g>
<!-- feature_systems -->
<g id="node40" class="node">
<title>feature_systems</title>
<polygon fill="lightgrey" stroke="black" points="2955,-473.48 2952,-477.48 2931,-477.48 2928,-473.48 2859,-473.48 2859,-437.48 2955,-437.48 2955,-473.48"/>
<text text-anchor="middle" x="2907" y="-453.28" font-family="Courier New" font-size="9.00">⚙️ Game Systems</text>
</g>
<!-- feature_docs -->
<g id="node41" class="node">
<title>feature_docs</title>
<polygon fill="lightgrey" stroke="black" points="2841,-473.48 2838,-477.48 2817,-477.48 2814,-473.48 2713,-473.48 2713,-437.48 2841,-437.48 2841,-473.48"/>
<text text-anchor="middle" x="2777" y="-453.28" font-family="Courier New" font-size="9.00">📚 Comprehensive Docs</text>
</g>
<!-- legend_active -->
<g id="node42" class="node">
<title>legend_active</title>
<polygon fill="#4caf50" stroke="black" points="3563.5,-473.48 3560.5,-477.48 3539.5,-477.48 3536.5,-473.48 3498.5,-473.48 3498.5,-437.48 3563.5,-437.48 3563.5,-473.48"/>
<text text-anchor="middle" x="3531" y="-453.28" font-family="Courier New" font-size="9.00" fill="white">🟢 Active</text>
</g>
<!-- legend_legacy -->
<g id="node43" class="node">
<title>legend_legacy</title>
<polygon fill="#ff6f00" stroke="black" points="3564.5,-363.48 3561.5,-367.48 3540.5,-367.48 3537.5,-363.48 3457.5,-363.48 3457.5,-327.48 3564.5,-327.48 3564.5,-363.48"/>
<text text-anchor="middle" x="3511" y="-343.28" font-family="Courier New" font-size="9.00" fill="white">🟠 Legacy/Archive</text>
</g>
<!-- legend_active&#45;&gt;legend_legacy -->
<!-- legend_version -->
<g id="node44" class="node">
<title>legend_version</title>
<polygon fill="#90caf9" stroke="black" points="3480,-473.48 3477,-477.48 3456,-477.48 3453,-473.48 3426,-473.48 3426,-437.48 3480,-437.48 3480,-473.48"/>
<text text-anchor="middle" x="3453" y="-453.28" font-family="Courier New" font-size="9.00">Version</text>
</g>
<!-- legend_symlink -->
<g id="node45" class="node">
<title>legend_symlink</title>
<polygon fill="none" stroke="red" stroke-dasharray="5,2" points="3408,-473.48 3405,-477.48 3384,-477.48 3381,-473.48 3354,-473.48 3354,-437.48 3408,-437.48 3408,-473.48"/>
<text text-anchor="middle" x="3381" y="-453.28" font-family="Courier New" font-size="9.00">Symlink</text>
</g>
</g>
</svg>
