<?xml version="1.0" encoding="UTF-8" standalone="no"?>
<!DOCTYPE svg PUBLIC "-//W3C//DTD SVG 1.1//EN"
 "http://www.w3.org/Graphics/SVG/1.1/DTD/svg11.dtd">
<!-- Generated by graphviz version 2.43.0 (0)
 -->
<!-- Title: VeritableGamesInfrastructure Pages: 1 -->
<svg width="3920pt" height="559pt"
 viewBox="0.00 0.00 3920.00 558.80" xmlns="http://www.w3.org/2000/svg" xmlns:xlink="http://www.w3.org/1999/xlink">
<g id="graph0" class="graph" transform="scale(1 1) rotate(0) translate(4 554.8)">
<title>VeritableGamesInfrastructure</title>
<polygon fill="white" stroke="transparent" points="-4,4 -4,-554.8 3916,-554.8 3916,4 -4,4"/>
<g id="clust1" class="cluster">
<title>cluster_home_drive</title>
<polygon fill="#e3f2fd" stroke="blue" stroke-width="3" points="8,-8 8,-512.8 1390,-512.8 1390,-8 8,-8"/>
<text text-anchor="middle" x="699" y="-497.6" font-family="Times,serif" font-size="14.00">Drive 1: /home/user</text>
<text text-anchor="middle" x="699" y="-482.6" font-family="Times,serif" font-size="14.00">(122G &#45; Git Repository)</text>
</g>
<g id="clust2" class="cluster">
<title>cluster_home_docs</title>
<polygon fill="#fff9c4" stroke="goldenrod" stroke-width="3" points="577,-182.8 577,-466.8 1015,-466.8 1015,-182.8 577,-182.8"/>
<text text-anchor="middle" x="796" y="-451.6" font-family="Times,serif" font-size="14.00">docs/</text>
<text text-anchor="middle" x="796" y="-436.6" font-family="Times,serif" font-size="14.00">Documentation Hub</text>
</g>
<g id="clust3" class="cluster">
<title>cluster_home_projects</title>
<polygon fill="#c8e6c9" stroke="green" stroke-width="3" points="239,-16 239,-310.8 569,-310.8 569,-16 239,-16"/>
<text text-anchor="middle" x="404" y="-295.6" font-family="Times,serif" font-size="14.00">projects/</text>
<text text-anchor="middle" x="404" y="-280.6" font-family="Times,serif" font-size="14.00">Git Repositories</text>
</g>
<g id="clust4" class="cluster">
<title>cluster_vg_site</title>
<polygon fill="#a5d6a7" stroke="green" stroke-width="3" points="247,-24 247,-154 381,-154 381,-24 247,-24"/>
<text text-anchor="middle" x="314" y="-138.8" font-family="Times,serif" font-size="14.00">site/</text>
<text text-anchor="middle" x="314" y="-123.8" font-family="Times,serif" font-size="14.00">(Git Submodule)</text>
</g>
<g id="clust5" class="cluster">
<title>cluster_home_infra</title>
<polygon fill="#f3e5f5" stroke="purple" stroke-width="3" points="1023,-181.8 1023,-436.8 1382,-436.8 1382,-181.8 1023,-181.8"/>
<text text-anchor="middle" x="1202.5" y="-421.6" font-family="Times,serif" font-size="14.00">Infrastructure</text>
</g>
<g id="clust6" class="cluster">
<title>cluster_home_symlinks</title>
<polygon fill="#ffccbc" stroke="#d84315" stroke-width="3" points="16,-181 16,-282.6 231,-282.6 231,-181 16,-181"/>
<text text-anchor="middle" x="123.5" y="-267.4" font-family="Times,serif" font-size="14.00">Symlinks (→ /data)</text>
</g>
<g id="clust7" class="cluster">
<title>cluster_data_drive</title>
<polygon fill="#f3e5f5" stroke="purple" stroke-width="3" points="1398,-17 1398,-542.8 3377,-542.8 3377,-17 1398,-17"/>
<text text-anchor="middle" x="2387.5" y="-527.6" font-family="Times,serif" font-size="14.00">Drive 2: /data</text>
<text text-anchor="middle" x="2387.5" y="-512.6" font-family="Times,serif" font-size="14.00">(863G &#45; Secondary Storage)</text>
</g>
<g id="clust8" class="cluster">
<title>cluster_unity</title>
<polygon fill="#ffccbc" stroke="darkorange" stroke-width="3" points="1538,-181.8 1538,-311.8 1670,-311.8 1670,-181.8 1538,-181.8"/>
<text text-anchor="middle" x="1604" y="-296.6" font-family="Times,serif" font-size="14.00">unity&#45;projects/</text>
<text text-anchor="middle" x="1604" y="-281.6" font-family="Times,serif" font-size="14.00">(499GB)</text>
</g>
<g id="clust9" class="cluster">
<title>cluster_archives</title>
<polygon fill="#e1f5fe" stroke="cyan" stroke-width="3" points="1872,-25 1872,-466.8 2118,-466.8 2118,-25 1872,-25"/>
<text text-anchor="middle" x="1995" y="-451.6" font-family="Times,serif" font-size="14.00">archives/</text>
<text text-anchor="middle" x="1995" y="-436.6" font-family="Times,serif" font-size="14.00">(124GB)</text>
</g>
<g id="clust10" class="cluster">
<title>cluster_proj_backups</title>
<polygon fill="#f8bbd0" stroke="pink" stroke-width="3" points="2126,-182.8 2126,-466.8 2305,-466.8 2305,-182.8 2126,-182.8"/>
<text text-anchor="middle" x="2215.5" y="-451.6" font-family="Times,serif" font-size="14.00">projects/</text>
<text text-anchor="middle" x="2215.5" y="-436.6" font-family="Times,serif" font-size="14.00">(50GB &#45; Backups)</text>
</g>
<g id="clust11" class="cluster">
<title>cluster_backups</title>
<polygon fill="#fffde7" stroke="goldenrod" stroke-width="2" points="2313,-182.8 2313,-496.8 2915,-496.8 2915,-182.8 2313,-182.8"/>
<text text-anchor="middle" x="2614" y="-481.6" font-family="Times,serif" font-size="14.00">backups/</text>
<text text-anchor="middle" x="2614" y="-466.6" font-family="Times,serif" font-size="14.00">(39GB)</text>
<text text-anchor="middle" x="2614" y="-451.6" font-family="Times,serif" font-size="14.00">Comprehensive Backups</text>
</g>
<g id="clust12" class="cluster">
<title>cluster_repository</title>
<polygon fill="#e0f2f1" stroke="teal" stroke-width="3" points="2923,-182.8 2923,-496.8 3203,-496.8 3203,-182.8 2923,-182.8"/>
<text text-anchor="middle" x="3063" y="-481.6" font-family="Times,serif" font-size="14.00">repository/</text>
<text text-anchor="middle" x="3063" y="-466.6" font-family="Times,serif" font-size="14.00">(30GB)</text>
<text text-anchor="middle" x="3063" y="-451.6" font-family="Times,serif" font-size="14.00">Development Tools</text>
</g>
<g id="clust13" class="cluster">
<title>cluster_coolify</title>
<polygon fill="#f1f8e9" stroke="lightgreen" stroke-width="3" points="3211,-182.8 3211,-466.8 3369,-466.8 3369,-182.8 3211,-182.8"/>
<text text-anchor="middle" x="3290" y="-451.6" font-family="Times,serif" font-size="14.00">coolify/</text>
<text text-anchor="middle" x="3290" y="-436.6" font-family="Times,serif" font-size="14.00">(472KB)</text>
</g>
<g id="clust14" class="cluster">
<title>cluster_legend</title>
<polygon fill="#f5f5f5" stroke="gray" points="3385,-182.8 3385,-436.8 3904,-436.8 3904,-182.8 3385,-182.8"/>
<text text-anchor="middle" x="3644.5" y="-421.6" font-family="Times,serif" font-size="14.00">Legend</text>
</g>
<!-- home_root -->
<g id="node1" class="node">
<title>home_root</title>
<polygon fill="#1976d2" stroke="black" stroke-width="2" points="404,-382.8 316,-382.8 312,-378.8 312,-346.8 400,-346.8 404,-350.8 404,-382.8"/>
<polyline fill="none" stroke="black" stroke-width="2" points="400,-378.8 312,-378.8 "/>
<polyline fill="none" stroke="black" stroke-width="2" points="400,-378.8 400,-346.8 "/>
<polyline fill="none" stroke="black" stroke-width="2" points="400,-378.8 404,-382.8 "/>
<text text-anchor="middle" x="358" y="-368.2" font-family="Courier New" font-size="12.00" fill="white">/home/user</text>
<text text-anchor="middle" x="358" y="-355.2" font-family="Courier New" font-size="12.00" fill="white">122G</text>
</g>
<!-- docs_server -->
<g id="node2" class="node">
<title>docs_server</title>
<polygon fill="#fbc02d" stroke="black" points="665,-226.8 662,-230.8 641,-230.8 638,-226.8 585,-226.8 585,-190.8 665,-190.8 665,-226.8"/>
<text text-anchor="middle" x="625" y="-211.6" font-family="Courier New" font-size="9.00">server/</text>
<text text-anchor="middle" x="625" y="-201.6" font-family="Courier New" font-size="9.00">(Ops guides)</text>
</g>
<!-- home_root&#45;&gt;docs_server -->
<g id="edge1" class="edge">
<title>home_root&#45;&gt;docs_server</title>
<path fill="none" stroke="black" d="M404,-364C431.38,-364 460.83,-364 460.83,-364 460.83,-364 460.83,-214 460.83,-214 460.83,-214 574.84,-214 574.84,-214"/>
<polygon fill="black" stroke="black" points="574.84,-217.5 584.84,-214 574.84,-210.5 574.84,-217.5"/>
</g>
<!-- vg_main -->
<g id="node7" class="node">
<title>vg_main</title>
<polygon fill="#2e7d32" stroke="black" points="424.5,-226.8 421.5,-230.8 400.5,-230.8 397.5,-226.8 323.5,-226.8 323.5,-190.8 424.5,-190.8 424.5,-226.8"/>
<text text-anchor="middle" x="374" y="-211.6" font-family="Courier New" font-size="9.00" fill="white">veritable&#45;games/</text>
<text text-anchor="middle" x="374" y="-201.6" font-family="Courier New" font-size="9.00" fill="white">Main Project</text>
</g>
<!-- home_root&#45;&gt;vg_main -->
<g id="edge2" class="edge">
<title>home_root&#45;&gt;vg_main</title>
<path fill="none" stroke="black" d="M390.58,-346.6C390.58,-346.6 390.58,-236.88 390.58,-236.88"/>
<polygon fill="black" stroke="black" points="394.08,-236.88 390.58,-226.88 387.08,-236.88 394.08,-236.88"/>
</g>
<!-- home_btcpay -->
<g id="node11" class="node">
<title>home_btcpay</title>
<polygon fill="#9c27b0" stroke="black" points="1245,-227.8 1242,-231.8 1221,-231.8 1218,-227.8 1123,-227.8 1123,-189.8 1245,-189.8 1245,-227.8"/>
<text text-anchor="middle" x="1184" y="-216.6" font-family="Courier New" font-size="9.00" fill="white">btcpayserver&#45;docker/</text>
<text text-anchor="middle" x="1184" y="-206.6" font-family="Courier New" font-size="9.00" fill="white">(Bitcoin)</text>
<text text-anchor="middle" x="1184" y="-196.6" font-family="Courier New" font-size="9.00" fill="white">~130 scripts</text>
</g>
<!-- home_root&#45;&gt;home_btcpay -->
<g id="edge3" class="edge">
<title>home_root&#45;&gt;home_btcpay</title>
<path fill="none" stroke="black" d="M350.33,-346.65C350.33,-322.55 350.33,-283 350.33,-283 350.33,-283 1136,-283 1136,-283 1136,-283 1136,-237.91 1136,-237.91"/>
<polygon fill="black" stroke="black" points="1139.5,-237.91 1136,-227.91 1132.5,-237.91 1139.5,-237.91"/>
</g>
<!-- home_wg -->
<g id="node12" class="node">
<title>home_wg</title>
<polygon fill="#ce93d8" stroke="black" points="1374.5,-226.8 1371.5,-230.8 1350.5,-230.8 1347.5,-226.8 1263.5,-226.8 1263.5,-190.8 1374.5,-190.8 1374.5,-226.8"/>
<text text-anchor="middle" x="1319" y="-211.6" font-family="Courier New" font-size="9.00">wireguard&#45;backups/</text>
<text text-anchor="middle" x="1319" y="-201.6" font-family="Courier New" font-size="9.00">(VPN configs)</text>
</g>
<!-- home_root&#45;&gt;home_wg -->
<g id="edge5" class="edge">
<title>home_root&#45;&gt;home_wg</title>
<path fill="none" stroke="black" d="M363.75,-346.43C363.75,-324.86 363.75,-292 363.75,-292 363.75,-292 1319,-292 1319,-292 1319,-292 1319,-236.85 1319,-236.85"/>
<polygon fill="black" stroke="black" points="1322.5,-236.85 1319,-226.85 1315.5,-236.85 1322.5,-236.85"/>
</g>
<!-- home_scripts -->
<g id="node13" class="node">
<title>home_scripts</title>
<polygon fill="#ce93d8" stroke="black" points="1105,-226.8 1102,-230.8 1081,-230.8 1078,-226.8 1031,-226.8 1031,-190.8 1105,-190.8 1105,-226.8"/>
<text text-anchor="middle" x="1068" y="-211.6" font-family="Courier New" font-size="9.00">scripts/</text>
<text text-anchor="middle" x="1068" y="-201.6" font-family="Courier New" font-size="9.00">(Utilities)</text>
</g>
<!-- home_root&#45;&gt;home_scripts -->
<g id="edge4" class="edge">
<title>home_root&#45;&gt;home_scripts</title>
<path fill="none" stroke="black" d="M336.92,-346.42C336.92,-319.89 336.92,-274 336.92,-274 336.92,-274 1068,-274 1068,-274 1068,-274 1068,-236.96 1068,-236.96"/>
<polygon fill="black" stroke="black" points="1071.5,-236.96 1068,-226.96 1064.5,-236.96 1071.5,-236.96"/>
</g>
<!-- home_backups -->
<g id="node15" class="node">
<title>home_backups</title>
<ellipse fill="#ff6e40" stroke="black" cx="178" cy="-208.8" rx="45.01" ry="19.6"/>
<text text-anchor="middle" x="178" y="-211.6" font-family="Courier New" font-size="9.00" fill="white">backups/</text>
<text text-anchor="middle" x="178" y="-201.6" font-family="Courier New" font-size="9.00" fill="white">(symlink)</text>
</g>
<!-- home_root&#45;&gt;home_backups -->
<g id="edge6" class="edge">
<title>home_root&#45;&gt;home_backups</title>
<path fill="none" stroke="red" stroke-dasharray="5,2" d="M317.75,-346.51C317.75,-305.14 317.75,-208 317.75,-208 317.75,-208 233.37,-208 233.37,-208"/>
<polygon fill="red" stroke="red" points="233.37,-204.5 223.37,-208 233.37,-211.5 233.37,-204.5"/>
</g>
<!-- home_archives -->
<g id="node16" class="node">
<title>home_archives</title>
<ellipse fill="#ff6e40" stroke="black" cx="69" cy="-208.8" rx="45.01" ry="19.6"/>
<text text-anchor="middle" x="69" y="-211.6" font-family="Courier New" font-size="9.00" fill="white">archives/</text>
<text text-anchor="middle" x="69" y="-201.6" font-family="Courier New" font-size="9.00" fill="white">(symlink)</text>
</g>
<!-- home_root&#45;&gt;home_archives -->
<g id="edge7" class="edge">
<title>home_root&#45;&gt;home_archives</title>
<path fill="none" stroke="red" stroke-dasharray="5,2" d="M311.84,-364C233.78,-364 84.08,-364 84.08,-364 84.08,-364 84.08,-237.52 84.08,-237.52"/>
<polygon fill="red" stroke="red" points="87.59,-237.52 84.08,-227.52 80.59,-237.52 87.59,-237.52"/>
</g>
<!-- back_daily -->
<g id="node28" class="node">
<title>back_daily</title>
<polygon fill="#fdd835" stroke="black" points="2375,-226.8 2372,-230.8 2351,-230.8 2348,-226.8 2321,-226.8 2321,-190.8 2375,-190.8 2375,-226.8"/>
<text text-anchor="middle" x="2348" y="-206.6" font-family="Courier New" font-size="9.00">daily/</text>
</g>
<!-- home_root&#45;&gt;back_daily -->
<g id="edge25" class="edge">
<title>home_root&#45;&gt;back_daily</title>
<path fill="none" stroke="orange" stroke-width="2" stroke-dasharray="1,5" d="M377.17,-346.55C377.17,-330.61 377.17,-310 377.17,-310 377.17,-310 2353.6,-310 2353.6,-310 2353.6,-310 2353.6,-236.89 2353.6,-236.89"/>
<polygon fill="orange" stroke="orange" stroke-width="2" points="2357.1,-236.89 2353.6,-226.89 2350.1,-236.89 2357.1,-236.89"/>
<text text-anchor="middle" x="1448.5" y="-322.4" font-family="Courier New" font-size="8.00">backed up</text>
</g>
<!-- docs_server&#45;&gt;docs_server -->
<g id="edge11" class="edge">
<title>docs_server&#45;&gt;docs_server</title>
<path fill="none" stroke="black" d="M625,-226.82C625,-232.35 625,-237 625,-237 625,-237 670,-237 670,-237 670,-237 670,-149 670,-149 670,-149 625,-149 625,-149 625,-149 625,-180.53 625,-180.53"/>
<polygon fill="black" stroke="black" points="621.5,-180.53 625,-190.53 628.5,-180.53 621.5,-180.53"/>
</g>
<!-- docs_vg -->
<g id="node3" class="node">
<title>docs_vg</title>
<polygon fill="#fbc02d" stroke="black" points="1006.5,-382.8 1003.5,-386.8 982.5,-386.8 979.5,-382.8 905.5,-382.8 905.5,-346.8 1006.5,-346.8 1006.5,-382.8"/>
<text text-anchor="middle" x="956" y="-367.6" font-family="Courier New" font-size="9.00">veritable&#45;games/</text>
<text text-anchor="middle" x="956" y="-357.6" font-family="Courier New" font-size="9.00">(VG docs)</text>
</g>
<!-- docs_deployment -->
<g id="node4" class="node">
<title>docs_deployment</title>
<polygon fill="#fbc02d" stroke="black" points="887,-382.8 884,-386.8 863,-386.8 860,-382.8 813,-382.8 813,-346.8 887,-346.8 887,-382.8"/>
<text text-anchor="middle" x="850" y="-367.6" font-family="Courier New" font-size="9.00">deployment/</text>
<text text-anchor="middle" x="850" y="-357.6" font-family="Courier New" font-size="9.00">(Guides)</text>
</g>
<!-- docs_operations -->
<g id="node5" class="node">
<title>docs_operations</title>
<polygon fill="#fbc02d" stroke="black" points="794.5,-382.8 791.5,-386.8 770.5,-386.8 767.5,-382.8 693.5,-382.8 693.5,-346.8 794.5,-346.8 794.5,-382.8"/>
<text text-anchor="middle" x="744" y="-367.6" font-family="Courier New" font-size="9.00">operations/</text>
<text text-anchor="middle" x="744" y="-357.6" font-family="Courier New" font-size="9.00">(SSH, WireGuard)</text>
</g>
<!-- docs_reference -->
<g id="node6" class="node">
<title>docs_reference</title>
<polygon fill="#fbc02d" stroke="black" points="675,-382.8 672,-386.8 651,-386.8 648,-382.8 585,-382.8 585,-346.8 675,-346.8 675,-382.8"/>
<text text-anchor="middle" x="630" y="-367.6" font-family="Courier New" font-size="9.00">reference/</text>
<text text-anchor="middle" x="630" y="-357.6" font-family="Courier New" font-size="9.00">(Architecture)</text>
</g>
<!-- vg_site -->
<g id="node8" class="node">
<title>vg_site</title>
<polygon fill="#388e3c" stroke="black" stroke-width="2" points="370.5,-70 279.5,-70 275.5,-66 275.5,-32 366.5,-32 370.5,-36 370.5,-70"/>
<polyline fill="none" stroke="black" stroke-width="2" points="366.5,-66 275.5,-66 "/>
<polyline fill="none" stroke="black" stroke-width="2" points="366.5,-66 366.5,-32 "/>
<polyline fill="none" stroke="black" stroke-width="2" points="366.5,-66 370.5,-70 "/>
<text text-anchor="middle" x="323" y="-58.8" font-family="Courier New" font-size="9.00" fill="white">site/</text>
<text text-anchor="middle" x="323" y="-48.8" font-family="Courier New" font-size="9.00" fill="white">Next.js App</text>
<text text-anchor="middle" x="323" y="-38.8" font-family="Courier New" font-size="9.00" fill="white">(Git Submodule)</text>
</g>
<!-- vg_main&#45;&gt;vg_site -->
<g id="edge8" class="edge">
<title>vg_main&#45;&gt;vg_site</title>
<path fill="none" stroke="blue" stroke-width="2" d="M347,-190.7C347,-190.7 347,-80.36 347,-80.36"/>
<polygon fill="blue" stroke="blue" stroke-width="2" points="350.5,-80.36 347,-70.36 343.5,-80.36 350.5,-80.36"/>
<text text-anchor="middle" x="347.5" y="-164.6" font-family="Courier New" font-size="8.00">submodule</text>
</g>
<!-- vg_resources -->
<g id="node9" class="node">
<title>vg_resources</title>
<polygon fill="#66bb6a" stroke="black" points="479,-70 476,-74 455,-74 452,-70 389,-70 389,-32 479,-32 479,-70"/>
<text text-anchor="middle" x="434" y="-58.8" font-family="Courier New" font-size="9.00">resources/</text>
<text text-anchor="middle" x="434" y="-48.8" font-family="Courier New" font-size="9.00">(3.1GB)</text>
<text text-anchor="middle" x="434" y="-38.8" font-family="Courier New" font-size="9.00">Scripts &amp; Data</text>
</g>
<!-- vg_main&#45;&gt;vg_resources -->
<g id="edge9" class="edge">
<title>vg_main&#45;&gt;vg_resources</title>
<path fill="none" stroke="black" d="M406.75,-190.7C406.75,-190.7 406.75,-80.36 406.75,-80.36"/>
<polygon fill="black" stroke="black" points="410.25,-80.36 406.75,-70.36 403.25,-80.36 410.25,-80.36"/>
</g>
<!-- vg_docs_project -->
<g id="node10" class="node">
<title>vg_docs_project</title>
<polygon fill="#81c784" stroke="black" points="561,-69 558,-73 537,-73 534,-69 497,-69 497,-33 561,-33 561,-69"/>
<text text-anchor="middle" x="529" y="-53.8" font-family="Courier New" font-size="9.00">docs/</text>
<text text-anchor="middle" x="529" y="-43.8" font-family="Courier New" font-size="9.00">(Project)</text>
</g>
<!-- vg_main&#45;&gt;vg_docs_project -->
<g id="edge10" class="edge">
<title>vg_main&#45;&gt;vg_docs_project</title>
<path fill="none" stroke="black" d="M424.75,-202C469.96,-202 529,-202 529,-202 529,-202 529,-79.21 529,-79.21"/>
<polygon fill="black" stroke="black" points="532.5,-79.21 529,-69.21 525.5,-79.21 532.5,-79.21"/>
</g>
<!-- vg_main&#45;&gt;back_daily -->
<g id="edge26" class="edge">
<title>vg_main&#45;&gt;back_daily</title>
<path fill="none" stroke="orange" stroke-dasharray="1,5" d="M414.25,-226.87C414.25,-242.97 414.25,-264 414.25,-264 414.25,-264 2332.2,-264 2332.2,-264 2332.2,-264 2332.2,-236.87 2332.2,-236.87"/>
<polygon fill="orange" stroke="orange" points="2335.7,-236.87 2332.2,-226.87 2328.7,-236.87 2335.7,-236.87"/>
<text text-anchor="middle" x="470" y="-322.4" font-family="Courier New" font-size="8.00">DB backups</text>
</g>
<!-- arch_vg -->
<g id="node19" class="node">
<title>arch_vg</title>
<polygon fill="#01579b" stroke="black" points="1988.5,-226.8 1985.5,-230.8 1964.5,-230.8 1961.5,-226.8 1887.5,-226.8 1887.5,-190.8 1988.5,-190.8 1988.5,-226.8"/>
<text text-anchor="middle" x="1938" y="-211.6" font-family="Courier New" font-size="9.00" fill="white">veritable&#45;games/</text>
<text text-anchor="middle" x="1938" y="-201.6" font-family="Courier New" font-size="9.00" fill="white">(3.8GB)</text>
</g>
<!-- vg_resources&#45;&gt;arch_vg -->
<g id="edge27" class="edge">
<title>vg_resources&#45;&gt;arch_vg</title>
<path fill="none" stroke="green" d="M442.67,-70.31C442.67,-87.19 442.67,-109 442.67,-109 442.67,-109 1921.17,-109 1921.17,-109 1921.17,-109 1921.17,-180.49 1921.17,-180.49"/>
<polygon fill="green" stroke="green" points="1917.67,-180.49 1921.17,-190.49 1924.67,-180.49 1917.67,-180.49"/>
<text text-anchor="middle" x="2061" y="-164.6" font-family="Courier New" font-size="8.00">references data</text>
</g>
<!-- home_logs -->
<g id="node14" class="node">
<title>home_logs</title>
<polygon fill="#ce93d8" stroke="black" points="1255,-382.8 1252,-386.8 1231,-386.8 1228,-382.8 1149,-382.8 1149,-346.8 1255,-346.8 1255,-382.8"/>
<text text-anchor="middle" x="1202" y="-367.6" font-family="Courier New" font-size="9.00">logs/</text>
<text text-anchor="middle" x="1202" y="-357.6" font-family="Courier New" font-size="9.00">(auto&#45;deploy.log)</text>
</g>
<!-- home_backups&#45;&gt;back_daily -->
<g id="edge23" class="edge">
<title>home_backups&#45;&gt;back_daily</title>
<path fill="none" stroke="red" stroke-width="2" stroke-dasharray="5,2" d="M178,-228.81C178,-255.92 178,-301 178,-301 178,-301 2342.9,-301 2342.9,-301 2342.9,-301 2342.9,-237.01 2342.9,-237.01"/>
<polygon fill="red" stroke="red" stroke-width="2" points="2346.4,-237.01 2342.9,-227.01 2339.4,-237.01 2346.4,-237.01"/>
<text text-anchor="middle" x="403" y="-322.4" font-family="Courier New" font-size="8.00">symlink target</text>
</g>
<!-- home_archives&#45;&gt;arch_vg -->
<g id="edge24" class="edge">
<title>home_archives&#45;&gt;arch_vg</title>
<path fill="none" stroke="red" stroke-width="2" stroke-dasharray="5,2" d="M53.92,-227.84C53.92,-236.99 53.92,-246 53.92,-246 53.92,-246 1914.33,-246 1914.33,-246 1914.33,-246 1914.33,-236.96 1914.33,-236.96"/>
<polygon fill="red" stroke="red" stroke-width="2" points="1917.83,-236.96 1914.33,-226.96 1910.83,-236.96 1917.83,-236.96"/>
<text text-anchor="middle" x="537" y="-322.4" font-family="Courier New" font-size="8.00">symlink target</text>
</g>
<!-- data_root -->
<g id="node17" class="node">
<title>data_root</title>
<polygon fill="#7b1fa2" stroke="black" stroke-width="2" points="1862,-382.8 1812,-382.8 1808,-378.8 1808,-346.8 1858,-346.8 1862,-350.8 1862,-382.8"/>
<polyline fill="none" stroke="black" stroke-width="2" points="1858,-378.8 1808,-378.8 "/>
<polyline fill="none" stroke="black" stroke-width="2" points="1858,-378.8 1858,-346.8 "/>
<polyline fill="none" stroke="black" stroke-width="2" points="1858,-378.8 1862,-382.8 "/>
<text text-anchor="middle" x="1835" y="-368.2" font-family="Courier New" font-size="12.00" fill="white">/data</text>
<text text-anchor="middle" x="1835" y="-355.2" font-family="Courier New" font-size="12.00" fill="white">863G</text>
</g>
<!-- unity_main -->
<g id="node18" class="node">
<title>unity_main</title>
<polygon fill="#ff6f00" stroke="black" stroke-width="2" points="1662,-227.8 1659,-231.8 1638,-231.8 1635,-227.8 1546,-227.8 1546,-189.8 1662,-189.8 1662,-227.8"/>
<text text-anchor="middle" x="1604" y="-216.6" font-family="Courier New" font-size="9.00" fill="white">Unity Game Projects</text>
<text text-anchor="middle" x="1604" y="-206.6" font-family="Courier New" font-size="9.00" fill="white">(499GB)</text>
<text text-anchor="middle" x="1604" y="-196.6" font-family="Courier New" font-size="9.00" fill="white">~120 projects</text>
</g>
<!-- data_root&#45;&gt;unity_main -->
<g id="edge12" class="edge">
<title>data_root&#45;&gt;unity_main</title>
<path fill="none" stroke="black" d="M1807.59,-364C1746.4,-364 1604,-364 1604,-364 1604,-364 1604,-237.83 1604,-237.83"/>
<polygon fill="black" stroke="black" points="1607.5,-237.83 1604,-227.83 1600.5,-237.83 1607.5,-237.83"/>
</g>
<!-- data_root&#45;&gt;arch_vg -->
<g id="edge13" class="edge">
<title>data_root&#45;&gt;arch_vg</title>
<path fill="none" stroke="black" d="M1862.07,-364C1893.52,-364 1941.17,-364 1941.17,-364 1941.17,-364 1941.17,-236.91 1941.17,-236.91"/>
<polygon fill="black" stroke="black" points="1944.67,-236.91 1941.17,-226.91 1937.67,-236.91 1944.67,-236.91"/>
</g>
<!-- data_company -->
<g id="node23" class="node">
<title>data_company</title>
<polygon fill="#c8e6c9" stroke="black" stroke-width="2" points="1765.5,-226.8 1762.5,-230.8 1741.5,-230.8 1738.5,-226.8 1680.5,-226.8 1680.5,-190.8 1765.5,-190.8 1765.5,-226.8"/>
<text text-anchor="middle" x="1723" y="-211.6" font-family="Courier New" font-size="9.00">company&#45;site/</text>
<text text-anchor="middle" x="1723" y="-201.6" font-family="Courier New" font-size="9.00">(66GB)</text>
</g>
<!-- data_root&#45;&gt;data_company -->
<g id="edge14" class="edge">
<title>data_root&#45;&gt;data_company</title>
<path fill="none" stroke="black" d="M1807.89,-355C1774.74,-355 1723,-355 1723,-355 1723,-355 1723,-237.02 1723,-237.02"/>
<polygon fill="black" stroke="black" points="1726.5,-237.02 1723,-227.02 1719.5,-237.02 1726.5,-237.02"/>
</g>
<!-- data_refs -->
<g id="node24" class="node">
<title>data_refs</title>
<polygon fill="#dcedc8" stroke="black" points="1864,-227.8 1861,-231.8 1840,-231.8 1837,-227.8 1784,-227.8 1784,-189.8 1864,-189.8 1864,-227.8"/>
<text text-anchor="middle" x="1824" y="-216.6" font-family="Courier New" font-size="9.00">references/</text>
<text text-anchor="middle" x="1824" y="-206.6" font-family="Courier New" font-size="9.00">(58GB)</text>
<text text-anchor="middle" x="1824" y="-196.6" font-family="Courier New" font-size="9.00">Tools &amp; Docs</text>
</g>
<!-- data_root&#45;&gt;data_refs -->
<g id="edge15" class="edge">
<title>data_root&#45;&gt;data_refs</title>
<path fill="none" stroke="black" d="M1853,-346.6C1853,-346.6 1853,-237.86 1853,-237.86"/>
<polygon fill="black" stroke="black" points="1856.5,-237.86 1853,-227.86 1849.5,-237.86 1856.5,-237.86"/>
</g>
<!-- proj_enact -->
<g id="node25" class="node">
<title>proj_enact</title>
<polygon fill="#ec407a" stroke="black" points="2193.5,-226.8 2190.5,-230.8 2169.5,-230.8 2166.5,-226.8 2134.5,-226.8 2134.5,-190.8 2193.5,-190.8 2193.5,-226.8"/>
<text text-anchor="middle" x="2164" y="-211.6" font-family="Courier New" font-size="9.00">ENACT/</text>
<text text-anchor="middle" x="2164" y="-201.6" font-family="Courier New" font-size="9.00">(Backup)</text>
</g>
<!-- data_root&#45;&gt;proj_enact -->
<g id="edge16" class="edge">
<title>data_root&#45;&gt;proj_enact</title>
<path fill="none" stroke="black" d="M1817,-346.67C1817,-315.48 1817,-255 1817,-255 1817,-255 2164,-255 2164,-255 2164,-255 2164,-237.06 2164,-237.06"/>
<polygon fill="black" stroke="black" points="2167.5,-237.06 2164,-227.06 2160.5,-237.06 2167.5,-237.06"/>
</g>
<!-- data_root&#45;&gt;back_daily -->
<g id="edge17" class="edge">
<title>data_root&#45;&gt;back_daily</title>
<path fill="none" stroke="black" d="M1826,-346.7C1826,-333.9 1826,-319 1826,-319 1826,-319 2364.3,-319 2364.3,-319 2364.3,-319 2364.3,-237 2364.3,-237"/>
<polygon fill="black" stroke="black" points="2367.8,-237 2364.3,-227 2360.8,-237 2367.8,-237"/>
</g>
<!-- repo_aiml -->
<g id="node37" class="node">
<title>repo_aiml</title>
<polygon fill="#00897b" stroke="black" points="2985,-226.8 2982,-230.8 2961,-230.8 2958,-226.8 2931,-226.8 2931,-190.8 2985,-190.8 2985,-226.8"/>
<text text-anchor="middle" x="2958" y="-211.6" font-family="Courier New" font-size="9.00">AI&#45;ML/</text>
<text text-anchor="middle" x="2958" y="-201.6" font-family="Courier New" font-size="9.00">(Tools)</text>
</g>
<!-- data_root&#45;&gt;repo_aiml -->
<g id="edge18" class="edge">
<title>data_root&#45;&gt;repo_aiml</title>
<path fill="none" stroke="black" d="M1835,-346.4C1835,-337.2 1835,-328 1835,-328 1835,-328 2958,-328 2958,-328 2958,-328 2958,-236.9 2958,-236.9"/>
<polygon fill="black" stroke="black" points="2961.5,-236.9 2958,-226.9 2954.5,-236.9 2961.5,-236.9"/>
</g>
<!-- cool_apps -->
<g id="node41" class="node">
<title>cool_apps</title>
<polygon fill="#558b2f" stroke="black" points="3304.5,-226.8 3301.5,-230.8 3280.5,-230.8 3277.5,-226.8 3219.5,-226.8 3219.5,-190.8 3304.5,-190.8 3304.5,-226.8"/>
<text text-anchor="middle" x="3262" y="-206.6" font-family="Courier New" font-size="9.00">applications/</text>
</g>
<!-- data_root&#45;&gt;cool_apps -->
<g id="edge19" class="edge">
<title>data_root&#45;&gt;cool_apps</title>
<path fill="none" stroke="black" d="M1844,-346.72C1844,-341.41 1844,-337 1844,-337 1844,-337 3246.25,-337 3246.25,-337 3246.25,-337 3246.25,-236.9 3246.25,-236.9"/>
<polygon fill="black" stroke="black" points="3249.75,-236.9 3246.25,-226.9 3242.75,-236.9 3249.75,-236.9"/>
</g>
<!-- data_docker -->
<g id="node44" class="node">
<title>data_docker</title>
<polygon fill="#ffecb3" stroke="black" stroke-width="2" points="1528,-226.8 1525,-230.8 1504,-230.8 1501,-226.8 1406,-226.8 1406,-190.8 1528,-190.8 1528,-226.8"/>
<text text-anchor="middle" x="1467" y="-211.6" font-family="Courier New" font-size="9.00">docker&#45;hdd&#45;volumes/</text>
<text text-anchor="middle" x="1467" y="-201.6" font-family="Courier New" font-size="9.00">(Bitcoin blockchain)</text>
</g>
<!-- data_root&#45;&gt;data_docker -->
<g id="edge20" class="edge">
<title>data_root&#45;&gt;data_docker</title>
<path fill="none" stroke="black" d="M1807.94,-373C1722.96,-373 1467,-373 1467,-373 1467,-373 1467,-237 1467,-237"/>
<polygon fill="black" stroke="black" points="1470.5,-237 1467,-227 1463.5,-237 1470.5,-237"/>
</g>
<!-- arch_db -->
<g id="node20" class="node">
<title>arch_db</title>
<polygon fill="#0277bd" stroke="black" points="1996,-69 1993,-73 1972,-73 1969,-69 1880,-69 1880,-33 1996,-33 1996,-69"/>
<text text-anchor="middle" x="1938" y="-53.8" font-family="Courier New" font-size="9.00" fill="white">database&#45;snapshots/</text>
<text text-anchor="middle" x="1938" y="-43.8" font-family="Courier New" font-size="9.00" fill="white">(4.2GB)</text>
</g>
<!-- arch_vg&#45;&gt;arch_db -->
<g id="edge21" class="edge">
<title>arch_vg&#45;&gt;arch_db</title>
<path fill="none" stroke="black" d="M1954.83,-190.7C1954.83,-190.7 1954.83,-79.38 1954.83,-79.38"/>
<polygon fill="black" stroke="black" points="1958.33,-79.38 1954.83,-69.38 1951.33,-79.38 1958.33,-79.38"/>
</g>
<!-- arch_server -->
<g id="node21" class="node">
<title>arch_server</title>
<polygon fill="#0288d1" stroke="black" points="2109.5,-69 2106.5,-73 2085.5,-73 2082.5,-69 2014.5,-69 2014.5,-33 2109.5,-33 2109.5,-69"/>
<text text-anchor="middle" x="2062" y="-53.8" font-family="Courier New" font-size="9.00">server&#45;backups/</text>
<text text-anchor="middle" x="2062" y="-43.8" font-family="Courier New" font-size="9.00">(2.1GB)</text>
</g>
<!-- arch_vg&#45;&gt;arch_server -->
<g id="edge22" class="edge">
<title>arch_vg&#45;&gt;arch_server</title>
<path fill="none" stroke="black" d="M1988.82,-208C2004.75,-208 2018.25,-208 2018.25,-208 2018.25,-208 2018.25,-79.01 2018.25,-79.01"/>
<polygon fill="black" stroke="black" points="2021.75,-79.01 2018.25,-69.01 2014.75,-79.01 2021.75,-79.01"/>
</g>
<!-- arch_others -->
<g id="node22" class="node">
<title>arch_others</title>
<polygon fill="#0288d1" stroke="black" points="2022,-382.8 2019,-386.8 1998,-386.8 1995,-382.8 1968,-382.8 1968,-346.8 2022,-346.8 2022,-382.8"/>
<text text-anchor="middle" x="1995" y="-367.6" font-family="Courier New" font-size="9.00">others/</text>
<text text-anchor="middle" x="1995" y="-357.6" font-family="Courier New" font-size="9.00">(114GB)</text>
</g>
<!-- proj_noxii -->
<g id="node26" class="node">
<title>proj_noxii</title>
<polygon fill="#ec407a" stroke="black" points="2296.5,-382.8 2293.5,-386.8 2272.5,-386.8 2269.5,-382.8 2237.5,-382.8 2237.5,-346.8 2296.5,-346.8 2296.5,-382.8"/>
<text text-anchor="middle" x="2267" y="-367.6" font-family="Courier New" font-size="9.00">NOXII/</text>
<text text-anchor="middle" x="2267" y="-357.6" font-family="Courier New" font-size="9.00">(Backup)</text>
</g>
<!-- proj_legacy -->
<g id="node27" class="node">
<title>proj_legacy</title>
<polygon fill="#ec407a" stroke="black" points="2219.5,-382.8 2216.5,-386.8 2195.5,-386.8 2192.5,-382.8 2134.5,-382.8 2134.5,-346.8 2219.5,-346.8 2219.5,-382.8"/>
<text text-anchor="middle" x="2177" y="-367.6" font-family="Courier New" font-size="9.00">NOXII&#45;LEGACY/</text>
<text text-anchor="middle" x="2177" y="-357.6" font-family="Courier New" font-size="9.00">(Backup)</text>
</g>
<!-- back_hourly -->
<g id="node29" class="node">
<title>back_hourly</title>
<polygon fill="#fdd835" stroke="black" points="2907,-382.8 2904,-386.8 2883,-386.8 2880,-382.8 2853,-382.8 2853,-346.8 2907,-346.8 2907,-382.8"/>
<text text-anchor="middle" x="2880" y="-362.6" font-family="Courier New" font-size="9.00">hourly/</text>
</g>
<!-- back_weekly -->
<g id="node30" class="node">
<title>back_weekly</title>
<polygon fill="#fdd835" stroke="black" points="2835,-382.8 2832,-386.8 2811,-386.8 2808,-382.8 2781,-382.8 2781,-346.8 2835,-346.8 2835,-382.8"/>
<text text-anchor="middle" x="2808" y="-362.6" font-family="Courier New" font-size="9.00">weekly/</text>
</g>
<!-- back_monthly -->
<g id="node31" class="node">
<title>back_monthly</title>
<polygon fill="#fdd835" stroke="black" points="2762.5,-382.8 2759.5,-386.8 2738.5,-386.8 2735.5,-382.8 2703.5,-382.8 2703.5,-346.8 2762.5,-346.8 2762.5,-382.8"/>
<text text-anchor="middle" x="2733" y="-362.6" font-family="Courier New" font-size="9.00">monthly/</text>
</g>
<!-- back_yearly -->
<g id="node32" class="node">
<title>back_yearly</title>
<polygon fill="#fdd835" stroke="black" points="2685,-382.8 2682,-386.8 2661,-386.8 2658,-382.8 2631,-382.8 2631,-346.8 2685,-346.8 2685,-382.8"/>
<text text-anchor="middle" x="2658" y="-362.6" font-family="Courier New" font-size="9.00">yearly/</text>
</g>
<!-- back_btcpay -->
<g id="node33" class="node">
<title>back_btcpay</title>
<polygon fill="#fdd835" stroke="black" points="2613,-382.8 2610,-386.8 2589,-386.8 2586,-382.8 2559,-382.8 2559,-346.8 2613,-346.8 2613,-382.8"/>
<text text-anchor="middle" x="2586" y="-362.6" font-family="Courier New" font-size="9.00">btcpay/</text>
</g>
<!-- back_coolify -->
<g id="node34" class="node">
<title>back_coolify</title>
<polygon fill="#fdd835" stroke="black" points="2540.5,-382.8 2537.5,-386.8 2516.5,-386.8 2513.5,-382.8 2481.5,-382.8 2481.5,-346.8 2540.5,-346.8 2540.5,-382.8"/>
<text text-anchor="middle" x="2511" y="-362.6" font-family="Courier New" font-size="9.00">coolify/</text>
</g>
<!-- back_videos -->
<g id="node35" class="node">
<title>back_videos</title>
<polygon fill="#fdd835" stroke="black" points="2463,-382.8 2460,-386.8 2439,-386.8 2436,-382.8 2409,-382.8 2409,-346.8 2463,-346.8 2463,-382.8"/>
<text text-anchor="middle" x="2436" y="-362.6" font-family="Courier New" font-size="9.00">videos/</text>
</g>
<!-- back_wireguard -->
<g id="node36" class="node">
<title>back_wireguard</title>
<polygon fill="#fdd835" stroke="black" points="2390.5,-382.8 2387.5,-386.8 2366.5,-386.8 2363.5,-382.8 2321.5,-382.8 2321.5,-346.8 2390.5,-346.8 2390.5,-382.8"/>
<text text-anchor="middle" x="2356" y="-362.6" font-family="Courier New" font-size="9.00">wireguard/</text>
</g>
<!-- repo_3d -->
<g id="node38" class="node">
<title>repo_3d</title>
<polygon fill="#00897b" stroke="black" points="3195,-382.8 3192,-386.8 3171,-386.8 3168,-382.8 3115,-382.8 3115,-346.8 3195,-346.8 3195,-382.8"/>
<text text-anchor="middle" x="3155" y="-362.6" font-family="Courier New" font-size="9.00">3D&#45;Graphics/</text>
</g>
<!-- repo_algo -->
<g id="node39" class="node">
<title>repo_algo</title>
<polygon fill="#00897b" stroke="black" points="3097,-382.8 3094,-386.8 3073,-386.8 3070,-382.8 3023,-382.8 3023,-346.8 3097,-346.8 3097,-382.8"/>
<text text-anchor="middle" x="3060" y="-362.6" font-family="Courier New" font-size="9.00">Algorithms/</text>
</g>
<!-- repo_auto -->
<g id="node40" class="node">
<title>repo_auto</title>
<polygon fill="#00897b" stroke="black" points="3005,-382.8 3002,-386.8 2981,-386.8 2978,-382.8 2931,-382.8 2931,-346.8 3005,-346.8 3005,-382.8"/>
<text text-anchor="middle" x="2968" y="-362.6" font-family="Courier New" font-size="9.00">Automation/</text>
</g>
<!-- cool_db -->
<g id="node42" class="node">
<title>cool_db</title>
<polygon fill="#558b2f" stroke="black" points="3360.5,-382.8 3357.5,-386.8 3336.5,-386.8 3333.5,-382.8 3291.5,-382.8 3291.5,-346.8 3360.5,-346.8 3360.5,-382.8"/>
<text text-anchor="middle" x="3326" y="-362.6" font-family="Courier New" font-size="9.00">databases/</text>
</g>
<!-- cool_proxy -->
<g id="node43" class="node">
<title>cool_proxy</title>
<polygon fill="#558b2f" stroke="black" points="3273,-382.8 3270,-386.8 3249,-386.8 3246,-382.8 3219,-382.8 3219,-346.8 3273,-346.8 3273,-382.8"/>
<text text-anchor="middle" x="3246" y="-362.6" font-family="Courier New" font-size="9.00">proxy/</text>
</g>
<!-- legend_repo -->
<g id="node45" class="node">
<title>legend_repo</title>
<polygon fill="#1976d2" stroke="black" points="3896,-382.8 3810,-382.8 3806,-378.8 3806,-346.8 3892,-346.8 3896,-350.8 3896,-382.8"/>
<polyline fill="none" stroke="black" points="3892,-378.8 3806,-378.8 "/>
<polyline fill="none" stroke="black" points="3892,-378.8 3892,-346.8 "/>
<polyline fill="none" stroke="black" points="3892,-378.8 3896,-382.8 "/>
<text text-anchor="middle" x="3851" y="-362.6" font-family="Courier New" font-size="9.00" fill="white">Git Repository</text>
</g>
<!-- legend_data -->
<g id="node46" class="node">
<title>legend_data</title>
<polygon fill="#66bb6a" stroke="black" points="3896,-226.8 3893,-230.8 3872,-230.8 3869,-226.8 3806,-226.8 3806,-190.8 3896,-190.8 3896,-226.8"/>
<text text-anchor="middle" x="3851" y="-206.6" font-family="Courier New" font-size="9.00">Data Directory</text>
</g>
<!-- legend_repo&#45;&gt;legend_data -->
<!-- legend_backup -->
<g id="node47" class="node">
<title>legend_backup</title>
<polygon fill="#fdd835" stroke="black" points="3787.5,-382.8 3784.5,-386.8 3763.5,-386.8 3760.5,-382.8 3702.5,-382.8 3702.5,-346.8 3787.5,-346.8 3787.5,-382.8"/>
<text text-anchor="middle" x="3745" y="-362.6" font-family="Courier New" font-size="9.00">Backup Target</text>
</g>
<!-- legend_symlink -->
<g id="node48" class="node">
<title>legend_symlink</title>
<polygon fill="none" stroke="red" stroke-dasharray="5,2" points="3684.5,-382.8 3681.5,-386.8 3660.5,-386.8 3657.5,-382.8 3583.5,-382.8 3583.5,-346.8 3684.5,-346.8 3684.5,-382.8"/>
<text text-anchor="middle" x="3634" y="-362.6" font-family="Courier New" font-size="9.00">Symlink (dashed)</text>
</g>
<!-- legend_submodule -->
<g id="node49" class="node">
<title>legend_submodule</title>
<polygon fill="blue" stroke="blue" points="3565.5,-382.8 3562.5,-386.8 3541.5,-386.8 3538.5,-382.8 3480.5,-382.8 3480.5,-346.8 3565.5,-346.8 3565.5,-382.8"/>
<text text-anchor="middle" x="3523" y="-362.6" font-family="Courier New" font-size="9.00">Git Submodule</text>
</g>
<!-- legend_edge -->
<g id="node50" class="node">
<title>legend_edge</title>
<polygon fill="lightgrey" stroke="transparent" points="3462.5,-382.8 3393.5,-382.8 3393.5,-346.8 3462.5,-346.8 3462.5,-382.8"/>
<text text-anchor="middle" x="3428" y="-362.6" font-family="Courier New" font-size="9.00">Edge Type:</text>
</g>
</g>
</svg>
