<?xml version="1.0" encoding="UTF-8" standalone="no"?>
<!DOCTYPE svg PUBLIC "-//W3C//DTD SVG 1.1//EN"
 "http://www.w3.org/Graphics/SVG/1.1/DTD/svg11.dtd">
<!-- Generated by graphviz version 2.43.0 (0)
 -->
<!-- Title: VeritableGamesDeepInfrastructure Pages: 1 -->
<svg width="5770pt" height="532pt"
 viewBox="0.00 0.00 5770.00 531.80" xmlns="http://www.w3.org/2000/svg" xmlns:xlink="http://www.w3.org/1999/xlink">
<g id="graph0" class="graph" transform="scale(1 1) rotate(0) translate(4 527.8)">
<title>VeritableGamesDeepInfrastructure</title>
<polygon fill="white" stroke="transparent" points="-4,4 -4,-527.8 5766,-527.8 5766,4 -4,4"/>
<g id="clust1" class="cluster">
<title>cluster_home_drive</title>
<polygon fill="#e3f2fd" stroke="blue" stroke-width="3" points="8,-9 8,-484.8 1628,-484.8 1628,-9 8,-9"/>
<text text-anchor="middle" x="818" y="-469.6" font-family="Times,serif" font-size="14.00">/home/user (122G &#45; Git Repository)</text>
</g>
<g id="clust2" class="cluster">
<title>cluster_docs</title>
<polygon fill="#fff9c4" stroke="goldenrod" stroke-width="3" points="16,-166 16,-391.8 526,-391.8 526,-166 16,-166"/>
<text text-anchor="middle" x="271" y="-376.6" font-family="Times,serif" font-size="14.00">docs/ (Documentation Hub)</text>
</g>
<g id="clust3" class="cluster">
<title>cluster_projects</title>
<polygon fill="#c8e6c9" stroke="green" stroke-width="3" points="534,-17 534,-453.8 1106,-453.8 1106,-17 534,-17"/>
<text text-anchor="middle" x="820" y="-438.6" font-family="Times,serif" font-size="14.00">projects/</text>
</g>
<g id="clust4" class="cluster">
<title>cluster_vg</title>
<polygon fill="#a5d6a7" stroke="green" stroke-width="3" points="542,-25 542,-422.8 1098,-422.8 1098,-25 542,-25"/>
<text text-anchor="middle" x="820" y="-407.6" font-family="Times,serif" font-size="14.00">veritable&#45;games/</text>
</g>
<g id="clust5" class="cluster">
<title>cluster_site</title>
<polygon fill="#81c784" stroke="green" stroke-width="3" points="722,-33 722,-391.8 972,-391.8 972,-33 722,-33"/>
<text text-anchor="middle" x="847" y="-376.6" font-family="Times,serif" font-size="14.00">site/frontend/</text>
</g>
<g id="clust6" class="cluster">
<title>cluster_infra</title>
<polygon fill="#f3e5f5" stroke="purple" stroke-width="3" points="1404,-166 1404,-391.8 1620,-391.8 1620,-166 1404,-166"/>
<text text-anchor="middle" x="1512" y="-376.6" font-family="Times,serif" font-size="14.00">Infrastructure</text>
</g>
<g id="clust7" class="cluster">
<title>cluster_symlinks</title>
<polygon fill="#ffccbc" stroke="blue" stroke-width="3" points="1114,-164.2 1114,-265.8 1396,-265.8 1396,-164.2 1114,-164.2"/>
<text text-anchor="middle" x="1255" y="-250.6" font-family="Times,serif" font-size="14.00">Symlinks → /data</text>
</g>
<g id="clust8" class="cluster">
<title>cluster_data_drive</title>
<polygon fill="#f3e5f5" stroke="purple" stroke-width="3" points="1839,-8 1839,-515.8 5320,-515.8 5320,-8 1839,-8"/>
<text text-anchor="middle" x="3579.5" y="-500.6" font-family="Times,serif" font-size="14.00">/data (? &#45; Secondary Storage)</text>
</g>
<g id="clust9" class="cluster">
<title>cluster_unity_deep</title>
<polygon fill="#ffccbc" stroke="darkorange" stroke-width="3" points="2199,-16 2199,-484.8 2715,-484.8 2715,-16 2199,-16"/>
<text text-anchor="middle" x="2457" y="-469.6" font-family="Times,serif" font-size="14.00">unity&#45;projects/ (499G)</text>
<text text-anchor="middle" x="2457" y="-454.6" font-family="Times,serif" font-size="14.00">DODEC Engine &#45; Versioned Releases</text>
</g>
<g id="clust10" class="cluster">
<title>cluster_dodec_main</title>
<polygon fill="#ffe0b2" stroke="darkorange" stroke-width="3" points="2207,-24 2207,-423.8 2707,-423.8 2707,-24 2207,-24"/>
<text text-anchor="middle" x="2457" y="-408.6" font-family="Times,serif" font-size="14.00">DODEC/ (Main Game Engine)</text>
</g>
<g id="clust11" class="cluster">
<title>cluster_dodec_2025</title>
<polygon fill="#ffd699" stroke="darkorange" stroke-width="3" points="2539,-32 2539,-392.8 2699,-392.8 2699,-32 2539,-32"/>
<text text-anchor="middle" x="2619" y="-377.6" font-family="Times,serif" font-size="14.00">2025/ (63G) &#45; Latest</text>
</g>
<g id="clust12" class="cluster">
<title>cluster_dodec_2024</title>
<polygon fill="#ffd699" stroke="darkorange" stroke-width="3" points="2405,-293.8 2405,-391.8 2531,-391.8 2531,-293.8 2405,-293.8"/>
<text text-anchor="middle" x="2468" y="-376.6" font-family="Times,serif" font-size="14.00">2024/ (52G)</text>
</g>
<g id="clust13" class="cluster">
<title>cluster_dodec_older</title>
<polygon fill="#ffd699" stroke="darkorange" stroke-width="3" points="2215,-292.8 2215,-392.8 2397,-392.8 2397,-292.8 2215,-292.8"/>
<text text-anchor="middle" x="2306" y="-377.6" font-family="Times,serif" font-size="14.00">2019&#45;2023/ (Historical)</text>
</g>
<g id="clust14" class="cluster">
<title>cluster_backups_deep</title>
<polygon fill="#fffde7" stroke="goldenrod" stroke-width="2" points="2723,-25 2723,-452.8 3847,-452.8 3847,-25 2723,-25"/>
<text text-anchor="middle" x="3285" y="-437.6" font-family="Times,serif" font-size="14.00">backups/ (39GB)</text>
<text text-anchor="middle" x="3285" y="-422.6" font-family="Times,serif" font-size="14.00">Multi&#45;Frequency Snapshots</text>
</g>
<g id="clust15" class="cluster">
<title>cluster_backup_freqs</title>
<polygon fill="#fffacd" stroke="goldenrod" stroke-width="2" points="3480,-33 3480,-391.8 3839,-391.8 3839,-33 3480,-33"/>
<text text-anchor="middle" x="3659.5" y="-376.6" font-family="Times,serif" font-size="14.00">Backup Schedules</text>
</g>
<g id="clust16" class="cluster">
<title>cluster_backup_services</title>
<polygon fill="#fffacd" stroke="goldenrod" stroke-width="2" points="3025,-293.8 3025,-391.8 3472,-391.8 3472,-293.8 3025,-293.8"/>
<text text-anchor="middle" x="3248.5" y="-376.6" font-family="Times,serif" font-size="14.00">Service&#45;Specific</text>
</g>
<g id="clust17" class="cluster">
<title>cluster_backup_legacy</title>
<polygon fill="#fffacd" stroke="goldenrod" stroke-width="2" points="2731,-293.8 2731,-391.8 3017,-391.8 3017,-293.8 2731,-293.8"/>
<text text-anchor="middle" x="2874" y="-376.6" font-family="Times,serif" font-size="14.00">Structure</text>
</g>
<g id="clust18" class="cluster">
<title>cluster_archives_deep</title>
<polygon fill="#e1f5fe" stroke="cyan" stroke-width="2" points="1847,-24 1847,-453.8 2191,-453.8 2191,-24 1847,-24"/>
<text text-anchor="middle" x="2019" y="-438.6" font-family="Times,serif" font-size="14.00">archives/ (124GB)</text>
<text text-anchor="middle" x="2019" y="-423.6" font-family="Times,serif" font-size="14.00">Historical Data</text>
</g>
<g id="clust19" class="cluster">
<title>cluster_archive_vg</title>
<polygon fill="#b3e5fc" stroke="cyan" stroke-width="2" points="1988,-165 1988,-265 2183,-265 2183,-165 1988,-165"/>
<text text-anchor="middle" x="2085.5" y="-249.8" font-family="Times,serif" font-size="14.00">veritable&#45;games/ (3.8GB)</text>
</g>
<g id="clust20" class="cluster">
<title>cluster_archive_db</title>
<polygon fill="#b3e5fc" stroke="cyan" stroke-width="2" points="1961,-32 1961,-132 2182,-132 2182,-32 1961,-32"/>
<text text-anchor="middle" x="2071.5" y="-116.8" font-family="Times,serif" font-size="14.00">database&#45;snapshots/ (4.2GB)</text>
</g>
<g id="clust21" class="cluster">
<title>cluster_archive_server</title>
<polygon fill="#b3e5fc" stroke="cyan" stroke-width="2" points="1994,-292.8 1994,-392.8 2183,-392.8 2183,-292.8 1994,-292.8"/>
<text text-anchor="middle" x="2088.5" y="-377.6" font-family="Times,serif" font-size="14.00">server&#45;backups/ (2.1GB)</text>
</g>
<g id="clust22" class="cluster">
<title>cluster_archive_other</title>
<polygon fill="#b3e5fc" stroke="cyan" stroke-width="2" points="1855,-292.8 1855,-392.8 1986,-392.8 1986,-292.8 1855,-292.8"/>
<text text-anchor="middle" x="1920.5" y="-377.6" font-family="Times,serif" font-size="14.00">others/ (114GB)</text>
</g>
<g id="clust23" class="cluster">
<title>cluster_refs_deep</title>
<polygon fill="#dcedc8" stroke="lightgreen" stroke-width="3" points="3879,-166 3879,-421.8 4213,-421.8 4213,-166 3879,-166"/>
<text text-anchor="middle" x="4046" y="-406.6" font-family="Times,serif" font-size="14.00">references/ (58GB)</text>
<text text-anchor="middle" x="4046" y="-391.6" font-family="Times,serif" font-size="14.00">Development Tools &amp; Documentation</text>
</g>
<g id="clust24" class="cluster">
<title>cluster_repo_deep</title>
<polygon fill="#e0f2f1" stroke="teal" stroke-width="3" points="4351,-157 4351,-452.8 4716,-452.8 4716,-157 4351,-157"/>
<text text-anchor="middle" x="4533.5" y="-437.6" font-family="Times,serif" font-size="14.00">repository/ (30GB)</text>
<text text-anchor="middle" x="4533.5" y="-422.6" font-family="Times,serif" font-size="14.00">Development Resources</text>
</g>
<g id="clust25" class="cluster">
<title>cluster_repo_aiml</title>
<polygon fill="#b2dfdb" stroke="teal" stroke-width="3" points="4359,-165 4359,-265 4477,-265 4477,-165 4359,-165"/>
<text text-anchor="middle" x="4418" y="-249.8" font-family="Times,serif" font-size="14.00">AI&#45;ML/</text>
</g>
<g id="clust26" class="cluster">
<title>cluster_repo_tools</title>
<polygon fill="#b2dfdb" stroke="teal" stroke-width="3" points="4359,-293.8 4359,-391.8 4708,-391.8 4708,-293.8 4359,-293.8"/>
<text text-anchor="middle" x="4533.5" y="-376.6" font-family="Times,serif" font-size="14.00">Dev Tools/</text>
</g>
<g id="clust27" class="cluster">
<title>cluster_proj_backups</title>
<polygon fill="#f8bbd0" stroke="pink" stroke-width="3" points="4724,-166 4724,-421.8 4938,-421.8 4938,-166 4724,-166"/>
<text text-anchor="middle" x="4831" y="-406.6" font-family="Times,serif" font-size="14.00">projects/ (50GB)</text>
<text text-anchor="middle" x="4831" y="-391.6" font-family="Times,serif" font-size="14.00">Project Backups</text>
</g>
<g id="clust28" class="cluster">
<title>cluster_coolify_deep</title>
<polygon fill="#f1f8e9" stroke="lightgreen" stroke-width="3" points="4946,-166 4946,-391.8 5140,-391.8 5140,-166 4946,-166"/>
<text text-anchor="middle" x="5043" y="-376.6" font-family="Times,serif" font-size="14.00">coolify/ (472KB)</text>
</g>
<g id="clust29" class="cluster">
<title>cluster_docker_deep</title>
<polygon fill="#ffecb3" stroke="goldenrod" stroke-width="3" points="5148,-165 5148,-391.8 5312,-391.8 5312,-165 5148,-165"/>
<text text-anchor="middle" x="5230" y="-376.6" font-family="Times,serif" font-size="14.00">docker&#45;hdd&#45;volumes/</text>
</g>
<g id="clust30" class="cluster">
<title>cluster_legend</title>
<polygon fill="#f5f5f5" stroke="gray" points="5328,-166 5328,-391.8 5754,-391.8 5754,-166 5328,-166"/>
<text text-anchor="middle" x="5541" y="-376.6" font-family="Times,serif" font-size="14.00">Legend &amp; Details</text>
</g>
<!-- home_root -->
<g id="node1" class="node">
<title>home_root</title>
<polygon fill="#1976d2" stroke="black" stroke-width="2" points="1299,-337.8 1211,-337.8 1207,-333.8 1207,-301.8 1295,-301.8 1299,-305.8 1299,-337.8"/>
<polyline fill="none" stroke="black" stroke-width="2" points="1295,-333.8 1207,-333.8 "/>
<polyline fill="none" stroke="black" stroke-width="2" points="1295,-333.8 1295,-301.8 "/>
<polyline fill="none" stroke="black" stroke-width="2" points="1295,-333.8 1299,-337.8 "/>
<text text-anchor="middle" x="1253" y="-316.7" font-family="Courier New" font-size="12.00" fill="white">/home/user</text>
</g>
<!-- docs_server -->
<g id="node2" class="node">
<title>docs_server</title>
<polygon fill="lightgrey" stroke="black" points="518,-210 515,-214 494,-214 491,-210 464,-210 464,-174 518,-174 518,-210"/>
<text text-anchor="middle" x="491" y="-189.8" font-family="Courier New" font-size="9.00">server/</text>
</g>
<!-- home_root&#45;&gt;docs_server -->
<g id="edge1" class="edge">
<title>home_root&#45;&gt;docs_server</title>
<path fill="none" stroke="black" d="M1206.89,-325C1129.78,-325 983,-325 983,-325 983,-325 983,-201 983,-201 983,-201 528.15,-201 528.15,-201"/>
<polygon fill="black" stroke="black" points="528.15,-197.5 518.15,-201 528.15,-204.5 528.15,-197.5"/>
</g>
<!-- vg_site -->
<g id="node8" class="node">
<title>vg_site</title>
<polygon fill="#388e3c" stroke="black" stroke-width="2" points="1071.5,-211 990.5,-211 986.5,-207 986.5,-173 1067.5,-173 1071.5,-177 1071.5,-211"/>
<polyline fill="none" stroke="black" stroke-width="2" points="1067.5,-207 986.5,-207 "/>
<polyline fill="none" stroke="black" stroke-width="2" points="1067.5,-207 1067.5,-173 "/>
<polyline fill="none" stroke="black" stroke-width="2" points="1067.5,-207 1071.5,-211 "/>
<text text-anchor="middle" x="1029" y="-199.8" font-family="Courier New" font-size="9.00" fill="white">site/</text>
<text text-anchor="middle" x="1029" y="-189.8" font-family="Courier New" font-size="9.00" fill="white">(Next.js App)</text>
<text text-anchor="middle" x="1029" y="-179.8" font-family="Courier New" font-size="9.00" fill="white">Git Submodule</text>
</g>
<!-- home_root&#45;&gt;vg_site -->
<g id="edge2" class="edge">
<title>home_root&#45;&gt;vg_site</title>
<path fill="none" stroke="black" d="M1206.86,-313C1141.29,-313 1029,-313 1029,-313 1029,-313 1029,-221.17 1029,-221.17"/>
<polygon fill="black" stroke="black" points="1032.5,-221.17 1029,-211.17 1025.5,-221.17 1032.5,-221.17"/>
</g>
<!-- home_btcpay -->
<g id="node17" class="node">
<title>home_btcpay</title>
<polygon fill="#9c27b0" stroke="black" points="1612,-210 1609,-214 1588,-214 1585,-210 1490,-210 1490,-174 1612,-174 1612,-210"/>
<text text-anchor="middle" x="1551" y="-194.8" font-family="Courier New" font-size="9.00" fill="white">btcpayserver&#45;docker/</text>
<text text-anchor="middle" x="1551" y="-184.8" font-family="Courier New" font-size="9.00" fill="white">(Bitcoin)</text>
</g>
<!-- home_root&#45;&gt;home_btcpay -->
<g id="edge3" class="edge">
<title>home_root&#45;&gt;home_btcpay</title>
<path fill="none" stroke="black" d="M1279.68,-301.78C1279.68,-272.78 1279.68,-219 1279.68,-219 1279.68,-219 1528.75,-219 1528.75,-219 1528.75,-219 1528.75,-218.12 1528.75,-218.12"/>
<polygon fill="black" stroke="black" points="1532.25,-220.16 1528.75,-210.16 1525.25,-220.16 1532.25,-220.16"/>
</g>
<!-- home_scripts -->
<g id="node19" class="node">
<title>home_scripts</title>
<polygon fill="lightgrey" stroke="black" points="1471.5,-210 1468.5,-214 1447.5,-214 1444.5,-210 1412.5,-210 1412.5,-174 1471.5,-174 1471.5,-210"/>
<text text-anchor="middle" x="1442" y="-189.8" font-family="Courier New" font-size="9.00">scripts/</text>
</g>
<!-- home_root&#45;&gt;home_scripts -->
<g id="edge4" class="edge">
<title>home_root&#45;&gt;home_scripts</title>
<path fill="none" stroke="black" d="M1299.27,-319C1353.04,-319 1434.5,-319 1434.5,-319 1434.5,-319 1434.5,-220.2 1434.5,-220.2"/>
<polygon fill="black" stroke="black" points="1438,-220.2 1434.5,-210.2 1431,-220.2 1438,-220.2"/>
</g>
<!-- home_backups -->
<g id="node20" class="node">
<title>home_backups</title>
<ellipse fill="#ff6e40" stroke="black" cx="1182" cy="-192" rx="60.21" ry="19.6"/>
<text text-anchor="middle" x="1182" y="-194.8" font-family="Courier New" font-size="9.00" fill="white">backups →</text>
<text text-anchor="middle" x="1182" y="-184.8" font-family="Courier New" font-size="9.00" fill="white">/data/backups</text>
</g>
<!-- home_root&#45;&gt;home_backups -->
<g id="edge5" class="edge">
<title>home_root&#45;&gt;home_backups</title>
<path fill="none" stroke="red" stroke-dasharray="5,2" d="M1230.4,-301.76C1230.4,-301.76 1230.4,-213.84 1230.4,-213.84"/>
<polygon fill="red" stroke="red" points="1233.9,-213.84 1230.4,-203.84 1226.9,-213.84 1233.9,-213.84"/>
</g>
<!-- home_archives -->
<g id="node21" class="node">
<title>home_archives</title>
<ellipse fill="#ff6e40" stroke="black" cx="1324" cy="-192" rx="63.78" ry="19.6"/>
<text text-anchor="middle" x="1324" y="-194.8" font-family="Courier New" font-size="9.00" fill="white">archives →</text>
<text text-anchor="middle" x="1324" y="-184.8" font-family="Courier New" font-size="9.00" fill="white">/data/archives</text>
</g>
<!-- home_root&#45;&gt;home_archives -->
<g id="edge6" class="edge">
<title>home_root&#45;&gt;home_archives</title>
<path fill="none" stroke="red" stroke-dasharray="5,2" d="M1270.02,-301.76C1270.02,-301.76 1270.02,-212.82 1270.02,-212.82"/>
<polygon fill="red" stroke="red" points="1273.52,-212.82 1270.02,-202.82 1266.52,-212.82 1273.52,-212.82"/>
</g>
<!-- back_daily -->
<g id="node29" class="node">
<title>back_daily</title>
<polygon fill="#fdd835" stroke="black" points="3831.5,-210 3828.5,-214 3807.5,-214 3804.5,-210 3720.5,-210 3720.5,-174 3831.5,-174 3831.5,-210"/>
<text text-anchor="middle" x="3776" y="-194.8" font-family="Courier New" font-size="9.00">daily/</text>
<text text-anchor="middle" x="3776" y="-184.8" font-family="Courier New" font-size="9.00">Full backup copies</text>
</g>
<!-- home_root&#45;&gt;back_daily -->
<g id="edge24" class="edge">
<title>home_root&#45;&gt;back_daily</title>
<path fill="none" stroke="orange" stroke-dasharray="1,5" d="M1289.34,-301.72C1289.34,-296.41 1289.34,-292 1289.34,-292 1289.34,-292 3776,-292 3776,-292 3776,-292 3776,-220.34 3776,-220.34"/>
<polygon fill="orange" stroke="orange" points="3779.5,-220.34 3776,-210.34 3772.5,-220.34 3779.5,-220.34"/>
<text text-anchor="middle" x="1680" y="-276.4" font-family="Courier New" font-size="8.00">backed up daily</text>
</g>
<!-- docs_vg -->
<g id="node3" class="node">
<title>docs_vg</title>
<polygon fill="lightgrey" stroke="black" points="517.5,-337.8 514.5,-341.8 493.5,-341.8 490.5,-337.8 416.5,-337.8 416.5,-301.8 517.5,-301.8 517.5,-337.8"/>
<text text-anchor="middle" x="467" y="-317.6" font-family="Courier New" font-size="9.00">veritable&#45;games/</text>
</g>
<!-- docs_deployment -->
<g id="node4" class="node">
<title>docs_deployment</title>
<polygon fill="lightgrey" stroke="black" points="398,-337.8 395,-341.8 374,-341.8 371,-337.8 324,-337.8 324,-301.8 398,-301.8 398,-337.8"/>
<text text-anchor="middle" x="361" y="-317.6" font-family="Courier New" font-size="9.00">deployment/</text>
</g>
<!-- docs_guides -->
<g id="node5" class="node">
<title>docs_guides</title>
<polygon fill="lightgrey" stroke="black" points="306,-337.8 303,-341.8 282,-341.8 279,-337.8 252,-337.8 252,-301.8 306,-301.8 306,-337.8"/>
<text text-anchor="middle" x="279" y="-317.6" font-family="Courier New" font-size="9.00">guides/</text>
</g>
<!-- docs_features -->
<g id="node6" class="node">
<title>docs_features</title>
<polygon fill="lightgrey" stroke="black" points="234,-337.8 231,-341.8 210,-341.8 207,-337.8 170,-337.8 170,-301.8 234,-301.8 234,-337.8"/>
<text text-anchor="middle" x="202" y="-317.6" font-family="Courier New" font-size="9.00">features/</text>
</g>
<!-- docs_infrastructure -->
<g id="node7" class="node">
<title>docs_infrastructure</title>
<polygon fill="lightgrey" stroke="black" points="151.5,-337.8 148.5,-341.8 127.5,-341.8 124.5,-337.8 24.5,-337.8 24.5,-301.8 151.5,-301.8 151.5,-337.8"/>
<text text-anchor="middle" x="88" y="-317.6" font-family="Courier New" font-size="9.00">infrastructure/ (NEW)</text>
</g>
<!-- site_src -->
<g id="node9" class="node">
<title>site_src</title>
<polygon fill="lightgrey" stroke="black" points="961,-77 958,-81 937,-81 934,-77 907,-77 907,-41 961,-41 961,-77"/>
<text text-anchor="middle" x="934" y="-56.8" font-family="Courier New" font-size="9.00">src/</text>
</g>
<!-- vg_site&#45;&gt;site_src -->
<g id="edge7" class="edge">
<title>vg_site&#45;&gt;site_src</title>
<path fill="none" stroke="black" d="M986.22,-183C961.01,-183 934,-183 934,-183 934,-183 934,-87.03 934,-87.03"/>
<polygon fill="black" stroke="black" points="937.5,-87.03 934,-77.03 930.5,-87.03 937.5,-87.03"/>
</g>
<!-- site_app -->
<g id="node10" class="node">
<title>site_app</title>
<polygon fill="lightgrey" stroke="black" points="889,-77 886,-81 865,-81 862,-77 835,-77 835,-41 889,-41 889,-77"/>
<text text-anchor="middle" x="862" y="-56.8" font-family="Courier New" font-size="9.00">app/</text>
</g>
<!-- vg_site&#45;&gt;site_app -->
<g id="edge8" class="edge">
<title>vg_site&#45;&gt;site_app</title>
<path fill="none" stroke="black" d="M986.23,-192C942.99,-192 882.5,-192 882.5,-192 882.5,-192 882.5,-87.21 882.5,-87.21"/>
<polygon fill="black" stroke="black" points="886,-87.21 882.5,-77.21 879,-87.21 886,-87.21"/>
</g>
<!-- vg_resources -->
<g id="node14" class="node">
<title>vg_resources</title>
<polygon fill="lightgrey" stroke="black" points="1090.5,-77 1087.5,-81 1066.5,-81 1063.5,-77 979.5,-77 979.5,-41 1090.5,-41 1090.5,-77"/>
<text text-anchor="middle" x="1035" y="-56.8" font-family="Courier New" font-size="9.00">resources/ (3.1GB)</text>
</g>
<!-- vg_site&#45;&gt;vg_resources -->
<g id="edge9" class="edge">
<title>vg_site&#45;&gt;vg_resources</title>
<path fill="none" stroke="black" d="M1014.83,-172.94C1014.83,-172.94 1014.83,-87.17 1014.83,-87.17"/>
<polygon fill="black" stroke="black" points="1018.33,-87.17 1014.83,-77.17 1011.33,-87.17 1018.33,-87.17"/>
</g>
<!-- vg_site&#45;&gt;back_daily -->
<g id="edge25" class="edge">
<title>vg_site&#45;&gt;back_daily</title>
<path fill="none" stroke="orange" stroke-dasharray="1,5" d="M1043.17,-172.98C1043.17,-153.17 1043.17,-125 1043.17,-125 1043.17,-125 3729.75,-125 3729.75,-125 3729.75,-125 3729.75,-163.69 3729.75,-163.69"/>
<polygon fill="orange" stroke="orange" points="3726.25,-163.69 3729.75,-173.69 3733.25,-163.69 3726.25,-163.69"/>
<text text-anchor="middle" x="1742" y="-276.4" font-family="Courier New" font-size="8.00">DB backups</text>
</g>
<!-- site_api -->
<g id="node11" class="node">
<title>site_api</title>
<polygon fill="lightgrey" stroke="black" points="963.5,-337.8 960.5,-341.8 939.5,-341.8 936.5,-337.8 894.5,-337.8 894.5,-301.8 963.5,-301.8 963.5,-337.8"/>
<text text-anchor="middle" x="929" y="-317.6" font-family="Courier New" font-size="9.00">api/ (40+)</text>
</g>
<!-- site_lib -->
<g id="node12" class="node">
<title>site_lib</title>
<polygon fill="lightgrey" stroke="black" points="876,-337.8 873,-341.8 852,-341.8 849,-337.8 822,-337.8 822,-301.8 876,-301.8 876,-337.8"/>
<text text-anchor="middle" x="849" y="-317.6" font-family="Courier New" font-size="9.00">lib/</text>
</g>
<!-- site_components -->
<g id="node13" class="node">
<title>site_components</title>
<polygon fill="lightgrey" stroke="black" points="804,-337.8 801,-341.8 780,-341.8 777,-337.8 730,-337.8 730,-301.8 804,-301.8 804,-337.8"/>
<text text-anchor="middle" x="767" y="-317.6" font-family="Courier New" font-size="9.00">components/</text>
</g>
<!-- arch_vg_content -->
<g id="node40" class="node">
<title>arch_vg_content</title>
<polygon fill="#01579b" stroke="black" points="2175,-211 2172,-215 2151,-215 2148,-211 2069,-211 2069,-173 2175,-173 2175,-211"/>
<text text-anchor="middle" x="2122" y="-199.8" font-family="Courier New" font-size="9.00" fill="white">Content snapshots</text>
<text text-anchor="middle" x="2122" y="-189.8" font-family="Courier New" font-size="9.00" fill="white">Database backups</text>
<text text-anchor="middle" x="2122" y="-179.8" font-family="Courier New" font-size="9.00" fill="white">Media archives</text>
</g>
<!-- vg_resources&#45;&gt;arch_vg_content -->
<g id="edge26" class="edge">
<title>vg_resources&#45;&gt;arch_vg_content</title>
<path fill="none" stroke="green" d="M1090.7,-59C1284.84,-59 1920,-59 1920,-59 1920,-59 1920,-192 1920,-192 1920,-192 2058.93,-192 2058.93,-192"/>
<polygon fill="green" stroke="green" points="2058.93,-195.5 2068.93,-192 2058.93,-188.5 2058.93,-195.5"/>
<text text-anchor="middle" x="3896" y="-142.6" font-family="Courier New" font-size="8.00">references</text>
</g>
<!-- vg_docs -->
<g id="node15" class="node">
<title>vg_docs</title>
<polygon fill="lightgrey" stroke="black" points="712,-337.8 709,-341.8 688,-341.8 685,-337.8 658,-337.8 658,-301.8 712,-301.8 712,-337.8"/>
<text text-anchor="middle" x="685" y="-317.6" font-family="Courier New" font-size="9.00">docs/</text>
</g>
<!-- vg_site_docs -->
<g id="node16" class="node">
<title>vg_site_docs</title>
<polygon fill="lightgrey" stroke="black" points="640,-337.8 637,-341.8 616,-341.8 613,-337.8 550,-337.8 550,-301.8 640,-301.8 640,-337.8"/>
<text text-anchor="middle" x="595" y="-317.6" font-family="Courier New" font-size="9.00">docs/features/</text>
</g>
<!-- home_wg -->
<g id="node18" class="node">
<title>home_wg</title>
<polygon fill="lightgrey" stroke="black" points="1567.5,-337.8 1564.5,-341.8 1543.5,-341.8 1540.5,-337.8 1456.5,-337.8 1456.5,-301.8 1567.5,-301.8 1567.5,-337.8"/>
<text text-anchor="middle" x="1512" y="-317.6" font-family="Courier New" font-size="9.00">wireguard&#45;backups/</text>
</g>
<!-- home_backups&#45;&gt;back_daily -->
<g id="edge22" class="edge">
<title>home_backups&#45;&gt;back_daily</title>
<path fill="none" stroke="red" stroke-width="2" stroke-dasharray="5,2" d="M1218.7,-208.03C1218.7,-234.38 1218.7,-284 1218.7,-284 1218.7,-284 3748.25,-284 3748.25,-284 3748.25,-284 3748.25,-220.18 3748.25,-220.18"/>
<polygon fill="red" stroke="red" stroke-width="2" points="3751.75,-220.18 3748.25,-210.18 3744.75,-220.18 3751.75,-220.18"/>
<text text-anchor="middle" x="1823" y="-276.4" font-family="Courier New" font-size="8.00">symlink</text>
</g>
<!-- home_archives&#45;&gt;arch_vg_content -->
<g id="edge23" class="edge">
<title>home_archives&#45;&gt;arch_vg_content</title>
<path fill="none" stroke="red" stroke-width="2" stroke-dasharray="5,2" d="M1343.32,-210.98C1343.32,-228.56 1343.32,-252 1343.32,-252 1343.32,-252 2103.75,-252 2103.75,-252 2103.75,-252 2103.75,-221.31 2103.75,-221.31"/>
<polygon fill="red" stroke="red" stroke-width="2" points="2107.25,-221.31 2103.75,-211.31 2100.25,-221.31 2107.25,-221.31"/>
<text text-anchor="middle" x="1786" y="-276.4" font-family="Courier New" font-size="8.00">symlink</text>
</g>
<!-- data_root -->
<g id="node22" class="node">
<title>data_root</title>
<polygon fill="#7b1fa2" stroke="black" stroke-width="2" points="4309,-337.8 4259,-337.8 4255,-333.8 4255,-301.8 4305,-301.8 4309,-305.8 4309,-337.8"/>
<polyline fill="none" stroke="black" stroke-width="2" points="4305,-333.8 4255,-333.8 "/>
<polyline fill="none" stroke="black" stroke-width="2" points="4305,-333.8 4305,-301.8 "/>
<polyline fill="none" stroke="black" stroke-width="2" points="4305,-333.8 4309,-337.8 "/>
<text text-anchor="middle" x="4282" y="-316.7" font-family="Courier New" font-size="12.00" fill="white">/data</text>
</g>
<!-- dodec_231 -->
<g id="node23" class="node">
<title>dodec_231</title>
<polygon fill="#ff9800" stroke="black" points="2690.5,-211 2687.5,-215 2666.5,-215 2663.5,-211 2589.5,-211 2589.5,-173 2690.5,-173 2690.5,-211"/>
<text text-anchor="middle" x="2640" y="-199.8" font-family="Courier New" font-size="9.00">v2.31 (Mar 2025)</text>
<text text-anchor="middle" x="2640" y="-189.8" font-family="Courier New" font-size="9.00">2022.3.60f1</text>
<text text-anchor="middle" x="2640" y="-179.8" font-family="Courier New" font-size="9.00">5.6GB</text>
</g>
<!-- data_root&#45;&gt;dodec_231 -->
<g id="edge10" class="edge">
<title>data_root&#45;&gt;dodec_231</title>
<path fill="none" stroke="black" d="M4268.5,-301.68C4268.5,-286.74 4268.5,-268 4268.5,-268 4268.5,-268 2673.25,-268 2673.25,-268 2673.25,-268 2673.25,-221.18 2673.25,-221.18"/>
<polygon fill="black" stroke="black" points="2676.75,-221.18 2673.25,-211.18 2669.75,-221.18 2676.75,-221.18"/>
</g>
<!-- data_root&#45;&gt;back_daily -->
<g id="edge11" class="edge">
<title>data_root&#45;&gt;back_daily</title>
<path fill="none" stroke="black" d="M4275.25,-301.62C4275.25,-276.97 4275.25,-236 4275.25,-236 4275.25,-236 3803.75,-236 3803.75,-236 3803.75,-236 3803.75,-220.15 3803.75,-220.15"/>
<polygon fill="black" stroke="black" points="3807.25,-220.15 3803.75,-210.15 3800.25,-220.15 3807.25,-220.15"/>
</g>
<!-- data_root&#45;&gt;arch_vg_content -->
<g id="edge12" class="edge">
<title>data_root&#45;&gt;arch_vg_content</title>
<path fill="none" stroke="black" d="M4261.75,-301.73C4261.75,-289.67 4261.75,-276 4261.75,-276 4261.75,-276 2156.75,-276 2156.75,-276 2156.75,-276 2156.75,-221.06 2156.75,-221.06"/>
<polygon fill="black" stroke="black" points="2160.25,-221.06 2156.75,-211.06 2153.25,-221.06 2160.25,-221.06"/>
</g>
<!-- ref_docs -->
<g id="node44" class="node">
<title>ref_docs</title>
<polygon fill="lightgrey" stroke="black" points="4202.5,-210 4199.5,-214 4178.5,-214 4175.5,-210 4117.5,-210 4117.5,-174 4202.5,-174 4202.5,-210"/>
<text text-anchor="middle" x="4160" y="-194.8" font-family="Courier New" font-size="9.00">Docs &amp; Guides</text>
<text text-anchor="middle" x="4160" y="-184.8" font-family="Courier New" font-size="9.00">(20GB)</text>
</g>
<!-- data_root&#45;&gt;ref_docs -->
<g id="edge13" class="edge">
<title>data_root&#45;&gt;ref_docs</title>
<path fill="none" stroke="black" d="M4254.63,-319C4235.27,-319 4212.75,-319 4212.75,-319 4212.75,-319 4212.75,-192 4212.75,-192 4212.75,-192 4211.73,-192 4211.73,-192"/>
<polygon fill="black" stroke="black" points="4212.58,-188.5 4202.58,-192 4212.58,-195.5 4212.58,-188.5"/>
</g>
<!-- repo_llm -->
<g id="node48" class="node">
<title>repo_llm</title>
<polygon fill="#00897b" stroke="black" points="4468.5,-211 4465.5,-215 4444.5,-215 4441.5,-211 4367.5,-211 4367.5,-173 4468.5,-173 4468.5,-211"/>
<text text-anchor="middle" x="4418" y="-199.8" font-family="Courier New" font-size="9.00">LLM Tools</text>
<text text-anchor="middle" x="4418" y="-189.8" font-family="Courier New" font-size="9.00">Embedding models</text>
<text text-anchor="middle" x="4418" y="-179.8" font-family="Courier New" font-size="9.00">RAG frameworks</text>
</g>
<!-- data_root&#45;&gt;repo_llm -->
<g id="edge14" class="edge">
<title>data_root&#45;&gt;repo_llm</title>
<path fill="none" stroke="black" d="M4309.28,-319C4330.1,-319 4355.25,-319 4355.25,-319 4355.25,-319 4355.25,-192 4355.25,-192 4355.25,-192 4357.35,-192 4357.35,-192"/>
<polygon fill="black" stroke="black" points="4357.35,-195.5 4367.35,-192 4357.35,-188.5 4357.35,-195.5"/>
</g>
<!-- proj_dodec -->
<g id="node52" class="node">
<title>proj_dodec</title>
<polygon fill="#ec407a" stroke="black" points="4842.5,-210 4839.5,-214 4818.5,-214 4815.5,-210 4731.5,-210 4731.5,-174 4842.5,-174 4842.5,-210"/>
<text text-anchor="middle" x="4787" y="-194.8" font-family="Courier New" font-size="9.00">DODEC</text>
<text text-anchor="middle" x="4787" y="-184.8" font-family="Courier New" font-size="9.00">Game engine backup</text>
</g>
<!-- data_root&#45;&gt;proj_dodec -->
<g id="edge15" class="edge">
<title>data_root&#45;&gt;proj_dodec</title>
<path fill="none" stroke="black" d="M4288.75,-301.46C4288.75,-274.42 4288.75,-227 4288.75,-227 4288.75,-227 4759,-227 4759,-227 4759,-227 4759,-220.32 4759,-220.32"/>
<polygon fill="black" stroke="black" points="4762.5,-220.32 4759,-210.32 4755.5,-220.32 4762.5,-220.32"/>
</g>
<!-- data_company -->
<g id="node56" class="node">
<title>data_company</title>
<polygon fill="#c8e6c9" stroke="black" stroke-width="2" points="4343,-210 4340,-214 4319,-214 4316,-210 4221,-210 4221,-174 4343,-174 4343,-210"/>
<text text-anchor="middle" x="4282" y="-194.8" font-family="Courier New" font-size="9.00">company&#45;site/ (66GB)</text>
<text text-anchor="middle" x="4282" y="-184.8" font-family="Courier New" font-size="9.00">Public Web Content</text>
</g>
<!-- data_root&#45;&gt;data_company -->
<g id="edge16" class="edge">
<title>data_root&#45;&gt;data_company</title>
<path fill="none" stroke="black" d="M4282,-301.76C4282,-301.76 4282,-220.36 4282,-220.36"/>
<polygon fill="black" stroke="black" points="4285.5,-220.36 4282,-210.36 4278.5,-220.36 4285.5,-220.36"/>
</g>
<!-- cool_apps -->
<g id="node57" class="node">
<title>cool_apps</title>
<polygon fill="lightgrey" stroke="black" points="5039.5,-210 5036.5,-214 5015.5,-214 5012.5,-210 4954.5,-210 4954.5,-174 5039.5,-174 5039.5,-210"/>
<text text-anchor="middle" x="4997" y="-194.8" font-family="Courier New" font-size="9.00">applications/</text>
<text text-anchor="middle" x="4997" y="-184.8" font-family="Courier New" font-size="9.00">App configs</text>
</g>
<!-- data_root&#45;&gt;cool_apps -->
<g id="edge17" class="edge">
<title>data_root&#45;&gt;cool_apps</title>
<path fill="none" stroke="black" d="M4295.5,-301.45C4295.5,-279.02 4295.5,-244 4295.5,-244 4295.5,-244 4997,-244 4997,-244 4997,-244 4997,-220.19 4997,-220.19"/>
<polygon fill="black" stroke="black" points="5000.5,-220.19 4997,-210.19 4993.5,-220.19 5000.5,-220.19"/>
</g>
<!-- docker_bitcoin -->
<g id="node60" class="node">
<title>docker_bitcoin</title>
<polygon fill="#fbc02d" stroke="black" points="5246,-211 5243,-215 5222,-215 5219,-211 5156,-211 5156,-173 5246,-173 5246,-211"/>
<text text-anchor="middle" x="5201" y="-199.8" font-family="Courier New" font-size="9.00">Bitcoin</text>
<text text-anchor="middle" x="5201" y="-189.8" font-family="Courier New" font-size="9.00">Blockchain</text>
<text text-anchor="middle" x="5201" y="-179.8" font-family="Courier New" font-size="9.00">Full node data</text>
</g>
<!-- data_root&#45;&gt;docker_bitcoin -->
<g id="edge18" class="edge">
<title>data_root&#45;&gt;docker_bitcoin</title>
<path fill="none" stroke="black" d="M4302.25,-301.53C4302.25,-283.95 4302.25,-260 4302.25,-260 4302.25,-260 5170.5,-260 5170.5,-260 5170.5,-260 5170.5,-221.3 5170.5,-221.3"/>
<polygon fill="black" stroke="black" points="5174,-221.3 5170.5,-211.3 5167,-221.3 5174,-221.3"/>
</g>
<!-- dodec_230 -->
<g id="node24" class="node">
<title>dodec_230</title>
<polygon fill="#ff9800" stroke="black" points="2690.5,-78 2687.5,-82 2666.5,-82 2663.5,-78 2589.5,-78 2589.5,-40 2690.5,-40 2690.5,-78"/>
<text text-anchor="middle" x="2640" y="-66.8" font-family="Courier New" font-size="9.00">v2.30 (Feb 2025)</text>
<text text-anchor="middle" x="2640" y="-56.8" font-family="Courier New" font-size="9.00">2022.3.57f1</text>
<text text-anchor="middle" x="2640" y="-46.8" font-family="Courier New" font-size="9.00">12GB</text>
</g>
<!-- dodec_231&#45;&gt;dodec_230 -->
<!-- dodec_229_226 -->
<g id="node25" class="node">
<title>dodec_229_226</title>
<polygon fill="#ffb74d" stroke="black" points="2656,-338.8 2653,-342.8 2632,-342.8 2629,-338.8 2582,-338.8 2582,-300.8 2656,-300.8 2656,-338.8"/>
<text text-anchor="middle" x="2619" y="-327.6" font-family="Courier New" font-size="9.00">v2.25&#45;v2.29</text>
<text text-anchor="middle" x="2619" y="-317.6" font-family="Courier New" font-size="9.00">6 versions</text>
<text text-anchor="middle" x="2619" y="-307.6" font-family="Courier New" font-size="9.00">40GB total</text>
</g>
<!-- dodec_2024_list -->
<g id="node26" class="node">
<title>dodec_2024_list</title>
<polygon fill="#ffb74d" stroke="black" points="2523.5,-337.8 2520.5,-341.8 2499.5,-341.8 2496.5,-337.8 2412.5,-337.8 2412.5,-301.8 2523.5,-301.8 2523.5,-337.8"/>
<text text-anchor="middle" x="2468" y="-322.6" font-family="Courier New" font-size="9.00">2024 Releases</text>
<text text-anchor="middle" x="2468" y="-312.6" font-family="Courier New" font-size="9.00">Versioned Archives</text>
</g>
<!-- dodec_history -->
<g id="node27" class="node">
<title>dodec_history</title>
<polygon fill="#ffb74d" stroke="black" points="2356.5,-338.8 2353.5,-342.8 2332.5,-342.8 2329.5,-338.8 2255.5,-338.8 2255.5,-300.8 2356.5,-300.8 2356.5,-338.8"/>
<text text-anchor="middle" x="2306" y="-327.6" font-family="Courier New" font-size="9.00">Complete Version</text>
<text text-anchor="middle" x="2306" y="-317.6" font-family="Courier New" font-size="9.00">History</text>
<text text-anchor="middle" x="2306" y="-307.6" font-family="Courier New" font-size="9.00">~400GB total</text>
</g>
<!-- back_hourly -->
<g id="node28" class="node">
<title>back_hourly</title>
<polygon fill="#fdd835" stroke="black" points="3831.5,-337.8 3828.5,-341.8 3807.5,-341.8 3804.5,-337.8 3720.5,-337.8 3720.5,-301.8 3831.5,-301.8 3831.5,-337.8"/>
<text text-anchor="middle" x="3776" y="-322.6" font-family="Courier New" font-size="9.00">hourly/</text>
<text text-anchor="middle" x="3776" y="-312.6" font-family="Courier New" font-size="9.00">Database snapshots</text>
</g>
<!-- back_weekly -->
<g id="node30" class="node">
<title>back_weekly</title>
<polygon fill="#fdd835" stroke="black" points="3813,-77 3810,-81 3789,-81 3786,-77 3739,-77 3739,-41 3813,-41 3813,-77"/>
<text text-anchor="middle" x="3776" y="-61.8" font-family="Courier New" font-size="9.00">weekly/</text>
<text text-anchor="middle" x="3776" y="-51.8" font-family="Courier New" font-size="9.00">Incremental</text>
</g>
<!-- back_daily&#45;&gt;back_weekly -->
<!-- back_monthly -->
<g id="node31" class="node">
<title>back_monthly</title>
<polygon fill="#fdd835" stroke="black" points="3702,-337.8 3699,-341.8 3678,-341.8 3675,-337.8 3612,-337.8 3612,-301.8 3702,-301.8 3702,-337.8"/>
<text text-anchor="middle" x="3657" y="-322.6" font-family="Courier New" font-size="9.00">monthly/</text>
<text text-anchor="middle" x="3657" y="-312.6" font-family="Courier New" font-size="9.00">Archive copies</text>
</g>
<!-- back_yearly -->
<g id="node32" class="node">
<title>back_yearly</title>
<polygon fill="#fdd835" stroke="black" points="3594,-337.8 3591,-341.8 3570,-341.8 3567,-337.8 3488,-337.8 3488,-301.8 3594,-301.8 3594,-337.8"/>
<text text-anchor="middle" x="3541" y="-322.6" font-family="Courier New" font-size="9.00">yearly/</text>
<text text-anchor="middle" x="3541" y="-312.6" font-family="Courier New" font-size="9.00">Long&#45;term storage</text>
</g>
<!-- back_btcpay -->
<g id="node33" class="node">
<title>back_btcpay</title>
<polygon fill="#fdd835" stroke="black" points="3463.5,-337.8 3460.5,-341.8 3439.5,-341.8 3436.5,-337.8 3368.5,-337.8 3368.5,-301.8 3463.5,-301.8 3463.5,-337.8"/>
<text text-anchor="middle" x="3416" y="-322.6" font-family="Courier New" font-size="9.00">btcpay/</text>
<text text-anchor="middle" x="3416" y="-312.6" font-family="Courier New" font-size="9.00">Bitcoin configs</text>
</g>
<!-- back_coolify -->
<g id="node34" class="node">
<title>back_coolify</title>
<polygon fill="#fdd835" stroke="black" points="3350.5,-337.8 3347.5,-341.8 3326.5,-341.8 3323.5,-337.8 3249.5,-337.8 3249.5,-301.8 3350.5,-301.8 3350.5,-337.8"/>
<text text-anchor="middle" x="3300" y="-322.6" font-family="Courier New" font-size="9.00">coolify/</text>
<text text-anchor="middle" x="3300" y="-312.6" font-family="Courier New" font-size="9.00">Deployment state</text>
</g>
<!-- back_wireguard -->
<g id="node35" class="node">
<title>back_wireguard</title>
<polygon fill="#fdd835" stroke="black" points="3231,-337.8 3228,-341.8 3207,-341.8 3204,-337.8 3157,-337.8 3157,-301.8 3231,-301.8 3231,-337.8"/>
<text text-anchor="middle" x="3194" y="-322.6" font-family="Courier New" font-size="9.00">wireguard/</text>
<text text-anchor="middle" x="3194" y="-312.6" font-family="Courier New" font-size="9.00">VPN configs</text>
</g>
<!-- back_videos -->
<g id="node36" class="node">
<title>back_videos</title>
<polygon fill="#fdd835" stroke="black" points="3139,-337.8 3136,-341.8 3115,-341.8 3112,-337.8 3033,-337.8 3033,-301.8 3139,-301.8 3139,-337.8"/>
<text text-anchor="middle" x="3086" y="-322.6" font-family="Courier New" font-size="9.00">videos/</text>
<text text-anchor="middle" x="3086" y="-312.6" font-family="Courier New" font-size="9.00">Snapshot archives</text>
</g>
<!-- back_volumes -->
<g id="node37" class="node">
<title>back_volumes</title>
<polygon fill="#fdd835" stroke="black" points="3009,-337.8 3006,-341.8 2985,-341.8 2982,-337.8 2919,-337.8 2919,-301.8 3009,-301.8 3009,-337.8"/>
<text text-anchor="middle" x="2964" y="-322.6" font-family="Courier New" font-size="9.00">volumes/</text>
<text text-anchor="middle" x="2964" y="-312.6" font-family="Courier New" font-size="9.00">Docker volumes</text>
</g>
<!-- back_logs -->
<g id="node38" class="node">
<title>back_logs</title>
<polygon fill="#fdd835" stroke="black" points="2901,-337.8 2898,-341.8 2877,-341.8 2874,-337.8 2827,-337.8 2827,-301.8 2901,-301.8 2901,-337.8"/>
<text text-anchor="middle" x="2864" y="-322.6" font-family="Courier New" font-size="9.00">logs/</text>
<text text-anchor="middle" x="2864" y="-312.6" font-family="Courier New" font-size="9.00">Backup logs</text>
</g>
<!-- back_scripts -->
<g id="node39" class="node">
<title>back_scripts</title>
<polygon fill="#fdd835" stroke="black" points="2808.5,-337.8 2805.5,-341.8 2784.5,-341.8 2781.5,-337.8 2739.5,-337.8 2739.5,-301.8 2808.5,-301.8 2808.5,-337.8"/>
<text text-anchor="middle" x="2774" y="-322.6" font-family="Courier New" font-size="9.00">scripts/</text>
<text text-anchor="middle" x="2774" y="-312.6" font-family="Courier New" font-size="9.00">Automation</text>
</g>
<!-- arch_db_content -->
<g id="node41" class="node">
<title>arch_db_content</title>
<polygon fill="#0277bd" stroke="black" points="2172.5,-78 2169.5,-82 2148.5,-82 2145.5,-78 2071.5,-78 2071.5,-40 2172.5,-40 2172.5,-78"/>
<text text-anchor="middle" x="2122" y="-66.8" font-family="Courier New" font-size="9.00" fill="white">PostgreSQL dumps</text>
<text text-anchor="middle" x="2122" y="-56.8" font-family="Courier New" font-size="9.00" fill="white">Schema backups</text>
<text text-anchor="middle" x="2122" y="-46.8" font-family="Courier New" font-size="9.00" fill="white">Migrations</text>
</g>
<!-- arch_vg_content&#45;&gt;arch_db_content -->
<!-- arch_server_content -->
<g id="node42" class="node">
<title>arch_server_content</title>
<polygon fill="#0288d1" stroke="black" points="2138.5,-338.8 2135.5,-342.8 2114.5,-342.8 2111.5,-338.8 2037.5,-338.8 2037.5,-300.8 2138.5,-300.8 2138.5,-338.8"/>
<text text-anchor="middle" x="2088" y="-327.6" font-family="Courier New" font-size="9.00">Config snapshots</text>
<text text-anchor="middle" x="2088" y="-317.6" font-family="Courier New" font-size="9.00">SSH keys</text>
<text text-anchor="middle" x="2088" y="-307.6" font-family="Courier New" font-size="9.00">Deploy logs</text>
</g>
<!-- arch_other -->
<g id="node43" class="node">
<title>arch_other</title>
<polygon fill="#0288d1" stroke="black" points="1967.5,-338.8 1964.5,-342.8 1943.5,-342.8 1940.5,-338.8 1872.5,-338.8 1872.5,-300.8 1967.5,-300.8 1967.5,-338.8"/>
<text text-anchor="middle" x="1920" y="-327.6" font-family="Courier New" font-size="9.00">Historical data</text>
<text text-anchor="middle" x="1920" y="-317.6" font-family="Courier New" font-size="9.00">Old projects</text>
<text text-anchor="middle" x="1920" y="-307.6" font-family="Courier New" font-size="9.00">Legacy configs</text>
</g>
<!-- ref_frameworks -->
<g id="node45" class="node">
<title>ref_frameworks</title>
<polygon fill="lightgrey" stroke="black" points="4204.5,-337.8 4201.5,-341.8 4180.5,-341.8 4177.5,-337.8 4103.5,-337.8 4103.5,-301.8 4204.5,-301.8 4204.5,-337.8"/>
<text text-anchor="middle" x="4154" y="-322.6" font-family="Courier New" font-size="9.00">Frameworks &amp; SDK</text>
<text text-anchor="middle" x="4154" y="-312.6" font-family="Courier New" font-size="9.00">(15GB)</text>
</g>
<!-- ref_tools -->
<g id="node46" class="node">
<title>ref_tools</title>
<polygon fill="lightgrey" stroke="black" points="4085,-337.8 4082,-341.8 4061,-341.8 4058,-337.8 3979,-337.8 3979,-301.8 4085,-301.8 4085,-337.8"/>
<text text-anchor="middle" x="4032" y="-322.6" font-family="Courier New" font-size="9.00">Tools &amp; Utilities</text>
<text text-anchor="middle" x="4032" y="-312.6" font-family="Courier New" font-size="9.00">(12GB)</text>
</g>
<!-- ref_samples -->
<g id="node47" class="node">
<title>ref_samples</title>
<polygon fill="lightgrey" stroke="black" points="3961,-337.8 3958,-341.8 3937,-341.8 3934,-337.8 3887,-337.8 3887,-301.8 3961,-301.8 3961,-337.8"/>
<text text-anchor="middle" x="3924" y="-322.6" font-family="Courier New" font-size="9.00">Sample Code</text>
<text text-anchor="middle" x="3924" y="-312.6" font-family="Courier New" font-size="9.00">(11GB)</text>
</g>
<!-- repo_3d -->
<g id="node49" class="node">
<title>repo_3d</title>
<polygon fill="lightgrey" stroke="black" points="4700,-337.8 4697,-341.8 4676,-341.8 4673,-337.8 4594,-337.8 4594,-301.8 4700,-301.8 4700,-337.8"/>
<text text-anchor="middle" x="4647" y="-322.6" font-family="Courier New" font-size="9.00">3D Graphics</text>
<text text-anchor="middle" x="4647" y="-312.6" font-family="Courier New" font-size="9.00">Rendering engines</text>
</g>
<!-- repo_algo -->
<g id="node50" class="node">
<title>repo_algo</title>
<polygon fill="lightgrey" stroke="black" points="4575.5,-337.8 4572.5,-341.8 4551.5,-341.8 4548.5,-337.8 4480.5,-337.8 4480.5,-301.8 4575.5,-301.8 4575.5,-337.8"/>
<text text-anchor="middle" x="4528" y="-322.6" font-family="Courier New" font-size="9.00">Algorithms</text>
<text text-anchor="middle" x="4528" y="-312.6" font-family="Courier New" font-size="9.00">Data structures</text>
</g>
<!-- repo_auto -->
<g id="node51" class="node">
<title>repo_auto</title>
<polygon fill="lightgrey" stroke="black" points="4462.5,-337.8 4459.5,-341.8 4438.5,-341.8 4435.5,-337.8 4367.5,-337.8 4367.5,-301.8 4462.5,-301.8 4462.5,-337.8"/>
<text text-anchor="middle" x="4415" y="-322.6" font-family="Courier New" font-size="9.00">Automation</text>
<text text-anchor="middle" x="4415" y="-312.6" font-family="Courier New" font-size="9.00">Scripting tools</text>
</g>
<!-- proj_enact -->
<g id="node53" class="node">
<title>proj_enact</title>
<polygon fill="#ec407a" stroke="black" points="4930,-337.8 4927,-341.8 4906,-341.8 4903,-337.8 4876,-337.8 4876,-301.8 4930,-301.8 4930,-337.8"/>
<text text-anchor="middle" x="4903" y="-322.6" font-family="Courier New" font-size="9.00">ENACT</text>
<text text-anchor="middle" x="4903" y="-312.6" font-family="Courier New" font-size="9.00">Archive</text>
</g>
<!-- proj_noxii -->
<g id="node54" class="node">
<title>proj_noxii</title>
<polygon fill="#ec407a" stroke="black" points="4858,-337.8 4855,-341.8 4834,-341.8 4831,-337.8 4804,-337.8 4804,-301.8 4858,-301.8 4858,-337.8"/>
<text text-anchor="middle" x="4831" y="-322.6" font-family="Courier New" font-size="9.00">NOXII</text>
<text text-anchor="middle" x="4831" y="-312.6" font-family="Courier New" font-size="9.00">Archive</text>
</g>
<!-- proj_site -->
<g id="node55" class="node">
<title>proj_site</title>
<polygon fill="#ec407a" stroke="black" points="4786,-337.8 4783,-341.8 4762,-341.8 4759,-337.8 4732,-337.8 4732,-301.8 4786,-301.8 4786,-337.8"/>
<text text-anchor="middle" x="4759" y="-322.6" font-family="Courier New" font-size="9.00">SITE</text>
<text text-anchor="middle" x="4759" y="-312.6" font-family="Courier New" font-size="9.00">Backup</text>
</g>
<!-- cool_db -->
<g id="node58" class="node">
<title>cool_db</title>
<polygon fill="lightgrey" stroke="black" points="5131.5,-337.8 5128.5,-341.8 5107.5,-341.8 5104.5,-337.8 5062.5,-337.8 5062.5,-301.8 5131.5,-301.8 5131.5,-337.8"/>
<text text-anchor="middle" x="5097" y="-322.6" font-family="Courier New" font-size="9.00">databases/</text>
<text text-anchor="middle" x="5097" y="-312.6" font-family="Courier New" font-size="9.00">DB configs</text>
</g>
<!-- cool_proxy -->
<g id="node59" class="node">
<title>cool_proxy</title>
<polygon fill="lightgrey" stroke="black" points="5044,-337.8 5041,-341.8 5020,-341.8 5017,-337.8 4954,-337.8 4954,-301.8 5044,-301.8 5044,-337.8"/>
<text text-anchor="middle" x="4999" y="-322.6" font-family="Courier New" font-size="9.00">proxy/</text>
<text text-anchor="middle" x="4999" y="-312.6" font-family="Courier New" font-size="9.00">Traefik config</text>
</g>
<!-- docker_volumes -->
<g id="node61" class="node">
<title>docker_volumes</title>
<polygon fill="#fbc02d" stroke="black" points="5275,-337.8 5272,-341.8 5251,-341.8 5248,-337.8 5185,-337.8 5185,-301.8 5275,-301.8 5275,-337.8"/>
<text text-anchor="middle" x="5230" y="-322.6" font-family="Courier New" font-size="9.00">Other volumes</text>
<text text-anchor="middle" x="5230" y="-312.6" font-family="Courier New" font-size="9.00">Database files</text>
</g>
<!-- legend_drive -->
<g id="node62" class="node">
<title>legend_drive</title>
<polygon fill="#1976d2" stroke="black" points="5746,-337.8 5660,-337.8 5656,-333.8 5656,-301.8 5742,-301.8 5746,-305.8 5746,-337.8"/>
<polyline fill="none" stroke="black" points="5742,-333.8 5656,-333.8 "/>
<polyline fill="none" stroke="black" points="5742,-333.8 5742,-301.8 "/>
<polyline fill="none" stroke="black" points="5742,-333.8 5746,-337.8 "/>
<text text-anchor="middle" x="5701" y="-317.6" font-family="Courier New" font-size="9.00" fill="white">Physical Drive</text>
</g>
<!-- legend_project -->
<g id="node63" class="node">
<title>legend_project</title>
<polygon fill="#66bb6a" stroke="black" points="5745.5,-210 5742.5,-214 5721.5,-214 5718.5,-210 5644.5,-210 5644.5,-174 5745.5,-174 5745.5,-210"/>
<text text-anchor="middle" x="5695" y="-189.8" font-family="Courier New" font-size="9.00">Project/Category</text>
</g>
<!-- legend_drive&#45;&gt;legend_project -->
<!-- legend_backup -->
<g id="node64" class="node">
<title>legend_backup</title>
<polygon fill="#fdd835" stroke="black" points="5638,-337.8 5635,-341.8 5614,-341.8 5611,-337.8 5548,-337.8 5548,-301.8 5638,-301.8 5638,-337.8"/>
<text text-anchor="middle" x="5593" y="-317.6" font-family="Courier New" font-size="9.00">Backup Storage</text>
</g>
<!-- legend_symlink -->
<g id="node65" class="node">
<title>legend_symlink</title>
<polygon fill="#ff6e40" stroke="black" points="5529.5,-337.8 5526.5,-341.8 5505.5,-341.8 5502.5,-337.8 5428.5,-337.8 5428.5,-301.8 5529.5,-301.8 5529.5,-337.8"/>
<text text-anchor="middle" x="5479" y="-317.6" font-family="Courier New" font-size="9.00">Symlink (dashed)</text>
</g>
<!-- legend_game -->
<g id="node66" class="node">
<title>legend_game</title>
<polygon fill="#ff9800" stroke="black" points="5410,-337.8 5407,-341.8 5386,-341.8 5383,-337.8 5336,-337.8 5336,-301.8 5410,-301.8 5410,-337.8"/>
<text text-anchor="middle" x="5373" y="-317.6" font-family="Courier New" font-size="9.00">Game/Engine</text>
</g>
</g>
</svg>
